<?xml version="1.0" encoding="utf-8"?>
<!DOCTYPE svg PUBLIC "-//W3C//DTD SVG 1.1//EN" "http://www.w3.org/Graphics/SVG/1.1/DTD/svg11.dtd">
<svg version="1.1" id="Layer_1" xmlns="http://www.w3.org/2000/svg" xmlns:xlink="http://www.w3.org/1999/xlink" x="0px" y="0px"
width="1155px" height="1155px" viewBox="0 0 1155 1155" enable-background="new 0 0 1155 1155" xml:space="preserve">
<rect x="0" y="0" width="1155" height="1155" fill="rgb(0,0,0)" fill-opacity="0" /><g transform="translate(70,70)"><g transform="translate(280,0) scale(0.07,0.07)"><g transform="" style="fill: rgb(255, 255, 255);">
<path d="M38.5,211.5c0,42.907,0,123.188,0,171.55c0,23.857,0,39.95,0,39.95v17.5V470v30h423v-30v-29.5V423c0,0,0-16.216,0-39.95
	c0-51.332,0-137.84,0-171.55C461.5,94.699,366.8,0,250,0C133.191,0,38.5,94.699,38.5,211.5z"/>
</g></g><g transform="translate(350,0) scale(0.07,0.07)"><g transform="" style="fill: rgb(255, 255, 255);">
<path d="M38.5,211.5c0,42.907,0,123.188,0,171.55c0,23.857,0,39.95,0,39.95v17.5V470v30h423v-30v-29.5V423c0,0,0-16.216,0-39.95
	c0-51.332,0-137.84,0-171.55C461.5,94.699,366.8,0,250,0C133.191,0,38.5,94.699,38.5,211.5z"/>
</g></g><g transform="translate(385,0) scale(0.07,0.07)"><g transform="" style="fill: rgb(255, 255, 255);">
<path d="M38.5,211.5c0,42.907,0,123.188,0,171.55c0,23.857,0,39.95,0,39.95v17.5V470v30h423v-30v-29.5V423c0,0,0-16.216,0-39.95
	c0-51.332,0-137.84,0-171.55C461.5,94.699,366.8,0,250,0C133.191,0,38.5,94.699,38.5,211.5z"/>
</g></g><g transform="translate(420,0) scale(0.07,0.07)"><g transform="" style="fill: rgb(255, 255, 255);">
<path d="M250,38.5c116.813,0,211.5,94.693,211.5,211.5c0,116.813-94.687,211.5-211.5,211.5c-116.807,0-211.5-94.687-211.5-211.5
	C38.5,133.193,133.193,38.5,250,38.5z"/>
</g></g><g transform="translate(525,0) scale(0.07,0.07)"><g transform="" style="fill: rgb(255, 255, 255);">
<path d="M250,38.5c116.813,0,211.5,94.693,211.5,211.5c0,116.813-94.687,211.5-211.5,211.5c-116.807,0-211.5-94.687-211.5-211.5
	C38.5,133.193,133.193,38.5,250,38.5z"/>
</g></g><g transform="translate(560,0) scale(0.07,0.07)"><g transform="" style="fill: rgb(255, 255, 255);">
<path d="M38.5,211.5c0,42.907,0,123.188,0,171.55c0,23.857,0,39.95,0,39.95v17.5V470v30h423v-30v-29.5V423c0,0,0-16.216,0-39.95
	c0-51.332,0-137.84,0-171.55C461.5,94.699,366.8,0,250,0C133.191,0,38.5,94.699,38.5,211.5z"/>
</g></g><g transform="translate(630,0) scale(0.07,0.07)"><g transform="" style="fill: rgb(255, 255, 255);">
<path d="M250,38.5c116.813,0,211.5,94.693,211.5,211.5c0,116.813-94.687,211.5-211.5,211.5c-116.807,0-211.5-94.687-211.5-211.5
	C38.5,133.193,133.193,38.5,250,38.5z"/>
</g></g><g transform="translate(280,35) scale(0.07,0.07)"><g transform="" style="fill: rgb(255, 255, 255);">
<polygon points="38.5,250 38.5,500 461.5,500 461.5,250 461.5,0 38.5,0 "/>
</g></g><g transform="translate(315,35) scale(0.07,0.07)"><g transform="" style="fill: rgb(255, 255, 255);">
<path d="M38.5,211.5c0,42.907,0,123.188,0,171.55c0,23.857,0,39.95,0,39.95v17.5V470v30h423v-30v-29.5V423c0,0,0-16.216,0-39.95
	c0-51.332,0-137.84,0-171.55C461.5,94.699,366.8,0,250,0C133.191,0,38.5,94.699,38.5,211.5z"/>
</g></g><g transform="translate(350,35) scale(0.07,0.07)"><g transform="" style="fill: rgb(255, 255, 255);">
<polygon points="38.5,250 38.5,500 461.5,500 461.5,250 461.5,0 38.5,0 "/>
</g></g><g transform="translate(385,35) scale(0.07,0.07)"><g transform="" style="fill: rgb(255, 255, 255);">
<path d="M461.5,288.5c0-42.907,0-123.188,0-171.55c0-23.857,0-39.95,0-39.95V59.5V30V0h-423v30v29.5V77c0,0,0,16.216,0,39.95
	c0,51.332,0,137.84,0,171.55C38.5,405.301,133.2,500,250,500C366.809,500,461.5,405.301,461.5,288.5z"/>
</g></g><g transform="translate(560,35) scale(0.07,0.07)"><g transform="" style="fill: rgb(255, 255, 255);">
<polygon points="38.5,250 38.5,500 461.5,500 461.5,250 461.5,0 38.5,0 "/>
</g></g><g transform="translate(595,35) scale(0.07,0.07)"><g transform="" style="fill: rgb(255, 255, 255);">
<path d="M250,38.5c116.813,0,211.5,94.693,211.5,211.5c0,116.813-94.687,211.5-211.5,211.5c-116.807,0-211.5-94.687-211.5-211.5
	C38.5,133.193,133.193,38.5,250,38.5z"/>
</g></g><g transform="translate(665,35) scale(0.07,0.07)"><g transform="" style="fill: rgb(255, 255, 255);">
<path d="M250,38.5c116.813,0,211.5,94.693,211.5,211.5c0,116.813-94.687,211.5-211.5,211.5c-116.807,0-211.5-94.687-211.5-211.5
	C38.5,133.193,133.193,38.5,250,38.5z"/>
</g></g><g transform="translate(280,70) scale(0.07,0.07)"><g transform="" style="fill: rgb(255, 255, 255);">
<path d="M461.5,288.5c0-42.907,0-123.188,0-171.55c0-23.857,0-39.95,0-39.95V59.5V30V0h-423v30v29.5V77c0,0,0,16.216,0,39.95
	c0,51.332,0,137.84,0,171.55C38.5,405.301,133.2,500,250,500C366.809,500,461.5,405.301,461.5,288.5z"/>
</g></g><g transform="translate(315,70) scale(0.07,0.07)"><g transform="" style="fill: rgb(255, 255, 255);">
<path d="M461.5,288.5c0-42.907,0-123.188,0-171.55c0-23.857,0-39.95,0-39.95V59.5V30V0h-423v30v29.5V77c0,0,0,16.216,0,39.95
	c0,51.332,0,137.84,0,171.55C38.5,405.301,133.2,500,250,500C366.809,500,461.5,405.301,461.5,288.5z"/>
</g></g><g transform="translate(350,70) scale(0.07,0.07)"><g transform="" style="fill: rgb(255, 255, 255);">
<path d="M461.5,288.5c0-42.907,0-123.188,0-171.55c0-23.857,0-39.95,0-39.95V59.5V30V0h-423v30v29.5V77c0,0,0,16.216,0,39.95
	c0,51.332,0,137.84,0,171.55C38.5,405.301,133.2,500,250,500C366.809,500,461.5,405.301,461.5,288.5z"/>
</g></g><g transform="translate(420,70) scale(0.07,0.07)"><g transform="" style="fill: rgb(255, 255, 255);">
<path d="M250,38.5c116.813,0,211.5,94.693,211.5,211.5c0,116.813-94.687,211.5-211.5,211.5c-116.807,0-211.5-94.687-211.5-211.5
	C38.5,133.193,133.193,38.5,250,38.5z"/>
</g></g><g transform="translate(525,70) scale(0.07,0.07)"><g transform="" style="fill: rgb(255, 255, 255);">
<path d="M250,38.5c116.813,0,211.5,94.693,211.5,211.5c0,116.813-94.687,211.5-211.5,211.5c-116.807,0-211.5-94.687-211.5-211.5
	C38.5,133.193,133.193,38.5,250,38.5z"/>
</g></g><g transform="translate(560,70) scale(0.07,0.07)"><g transform="" style="fill: rgb(255, 255, 255);">
<polygon points="38.5,250 38.5,500 461.5,500 461.5,250 461.5,0 38.5,0 "/>
</g></g><g transform="translate(630,70) scale(0.07,0.07)"><g transform="" style="fill: rgb(255, 255, 255);">
<path d="M250,38.5c116.813,0,211.5,94.693,211.5,211.5c0,116.813-94.687,211.5-211.5,211.5c-116.807,0-211.5-94.687-211.5-211.5
	C38.5,133.193,133.193,38.5,250,38.5z"/>
</g></g><g transform="translate(700,70) scale(0.07,0.07)"><g transform="" style="fill: rgb(255, 255, 255);">
<path d="M38.5,211.5c0,42.907,0,123.188,0,171.55c0,23.857,0,39.95,0,39.95v17.5V470v30h423v-30v-29.5V423c0,0,0-16.216,0-39.95
	c0-51.332,0-137.84,0-171.55C461.5,94.699,366.8,0,250,0C133.191,0,38.5,94.699,38.5,211.5z"/>
</g></g><g transform="translate(560,105) scale(0.07,0.07)"><g transform="" style="fill: rgb(255, 255, 255);">
<polygon points="38.5,250 38.5,500 461.5,500 461.5,250 461.5,0 38.5,0 "/>
</g></g><g transform="translate(595,105) scale(0.07,0.07)"><g transform="" style="fill: rgb(255, 255, 255);">
<path d="M38.5,211.5c0,42.907,0,123.188,0,171.55c0,23.857,0,39.95,0,39.95v17.5V470v30h423v-30v-29.5V423c0,0,0-16.216,0-39.95
	c0-51.332,0-137.84,0-171.55C461.5,94.699,366.8,0,250,0C133.191,0,38.5,94.699,38.5,211.5z"/>
</g></g><g transform="translate(665,105) scale(0.07,0.07)"><g transform="" style="fill: rgb(255, 255, 255);">
<path d="M38.5,211.5c0,42.907,0,123.188,0,171.55c0,23.857,0,39.95,0,39.95v17.5V470v30h423v-30v-29.5V423c0,0,0-16.216,0-39.95
	c0-51.332,0-137.84,0-171.55C461.5,94.699,366.8,0,250,0C133.191,0,38.5,94.699,38.5,211.5z"/>
</g></g><g transform="translate(700,105) scale(0.07,0.07)"><g transform="" style="fill: rgb(255, 255, 255);">
<path d="M461.5,288.5c0-42.907,0-123.188,0-171.55c0-23.857,0-39.95,0-39.95V59.5V30V0h-423v30v29.5V77c0,0,0,16.216,0,39.95
	c0,51.332,0,137.84,0,171.55C38.5,405.301,133.2,500,250,500C366.809,500,461.5,405.301,461.5,288.5z"/>
</g></g><g transform="translate(280,140) scale(0.07,0.07)"><g transform="" style="fill: rgb(255, 255, 255);">
<path d="M250,38.5c116.813,0,211.5,94.693,211.5,211.5c0,116.813-94.687,211.5-211.5,211.5c-116.807,0-211.5-94.687-211.5-211.5
	C38.5,133.193,133.193,38.5,250,38.5z"/>
</g></g><g transform="translate(350,140) scale(0.07,0.07)"><g transform="" style="fill: rgb(255, 255, 255);">
<path d="M250,38.5c116.813,0,211.5,94.693,211.5,211.5c0,116.813-94.687,211.5-211.5,211.5c-116.807,0-211.5-94.687-211.5-211.5
	C38.5,133.193,133.193,38.5,250,38.5z"/>
</g></g><g transform="translate(385,140) scale(0.07,0.07)"><g transform="" style="fill: rgb(255, 255, 255);">
<path d="M250,38.5c116.813,0,211.5,94.693,211.5,211.5c0,116.813-94.687,211.5-211.5,211.5c-116.807,0-211.5-94.687-211.5-211.5
	C38.5,133.193,133.193,38.5,250,38.5z"/>
</g></g><g transform="translate(490,140) scale(0.07,0.07)"><g transform="" style="fill: rgb(255, 255, 255);">
<path d="M250,38.5c116.813,0,211.5,94.693,211.5,211.5c0,116.813-94.687,211.5-211.5,211.5c-116.807,0-211.5-94.687-211.5-211.5
	C38.5,133.193,133.193,38.5,250,38.5z"/>
</g></g><g transform="translate(525,140) scale(0.07,0.07)"><g transform="" style="fill: rgb(255, 255, 255);">
<path d="M38.5,211.5c0,42.907,0,123.188,0,171.55c0,23.857,0,39.95,0,39.95v17.5V470v30h423v-30v-29.5V423c0,0,0-16.216,0-39.95
	c0-51.332,0-137.84,0-171.55C461.5,94.699,366.8,0,250,0C133.191,0,38.5,94.699,38.5,211.5z"/>
</g></g><g transform="translate(560,140) scale(0.07,0.07)"><g transform="" style="fill: rgb(255, 255, 255);">
<polygon points="38.5,250 38.5,500 461.5,500 461.5,250 461.5,0 38.5,0 "/>
</g></g><g transform="translate(595,140) scale(0.07,0.07)"><g transform="" style="fill: rgb(255, 255, 255);">
<polygon points="38.5,250 38.5,500 461.5,500 461.5,250 461.5,0 38.5,0 "/>
</g></g><g transform="translate(630,140) scale(0.07,0.07)"><g transform="" style="fill: rgb(255, 255, 255);">
<path d="M38.5,211.5c0,42.907,0,123.188,0,171.55c0,23.857,0,39.95,0,39.95v17.5V470v30h423v-30v-29.5V423c0,0,0-16.216,0-39.95
	c0-51.332,0-137.84,0-171.55C461.5,94.699,366.8,0,250,0C133.191,0,38.5,94.699,38.5,211.5z"/>
</g></g><g transform="translate(665,140) scale(0.07,0.07)"><g transform="" style="fill: rgb(255, 255, 255);">
<path d="M461.5,288.5c0-42.907,0-123.188,0-171.55c0-23.857,0-39.95,0-39.95V59.5V30V0h-423v30v29.5V77c0,0,0,16.216,0,39.95
	c0,51.332,0,137.84,0,171.55C38.5,405.301,133.2,500,250,500C366.809,500,461.5,405.301,461.5,288.5z"/>
</g></g><g transform="translate(525,175) scale(0.07,0.07)"><g transform="" style="fill: rgb(255, 255, 255);">
<path d="M461.5,288.5c0-42.907,0-123.188,0-171.55c0-23.857,0-39.95,0-39.95V59.5V30V0h-423v30v29.5V77c0,0,0,16.216,0,39.95
	c0,51.332,0,137.84,0,171.55C38.5,405.301,133.2,500,250,500C366.809,500,461.5,405.301,461.5,288.5z"/>
</g></g><g transform="translate(560,175) scale(0.07,0.07)"><g transform="" style="fill: rgb(255, 255, 255);">
<polygon points="38.5,250 38.5,500 461.5,500 461.5,250 461.5,0 38.5,0 "/>
</g></g><g transform="translate(595,175) scale(0.07,0.07)"><g transform="" style="fill: rgb(255, 255, 255);">
<path d="M461.5,288.5c0-42.907,0-123.188,0-171.55c0-23.857,0-39.95,0-39.95V59.5V30V0h-423v30v29.5V77c0,0,0,16.216,0,39.95
	c0,51.332,0,137.84,0,171.55C38.5,405.301,133.2,500,250,500C366.809,500,461.5,405.301,461.5,288.5z"/>
</g></g><g transform="translate(630,175) scale(0.07,0.07)"><g transform="" style="fill: rgb(255, 255, 255);">
<polygon points="38.5,250 38.5,500 461.5,500 461.5,250 461.5,0 38.5,0 "/>
</g></g><g transform="translate(700,175) scale(0.07,0.07)"><g transform="" style="fill: rgb(255, 255, 255);">
<path d="M38.5,211.5c0,42.907,0,123.188,0,171.55c0,23.857,0,39.95,0,39.95v17.5V470v30h423v-30v-29.5V423c0,0,0-16.216,0-39.95
	c0-51.332,0-137.84,0-171.55C461.5,94.699,366.8,0,250,0C133.191,0,38.5,94.699,38.5,211.5z"/>
</g></g><g transform="translate(280,210) scale(0.07,0.07)"><g transform="" style="fill: rgb(255, 255, 255);">
<path d="M250,38.5c116.813,0,211.5,94.693,211.5,211.5c0,116.813-94.687,211.5-211.5,211.5c-116.807,0-211.5-94.687-211.5-211.5
	C38.5,133.193,133.193,38.5,250,38.5z"/>
</g></g><g transform="translate(350,210) scale(0.07,0.07)"><g transform="" style="fill: rgb(255, 255, 255);">
<path d="M38.5,211.5c0,42.907,0,123.188,0,171.55c0,23.857,0,39.95,0,39.95v17.5V470v30h423v-30v-29.5V423c0,0,0-16.216,0-39.95
	c0-51.332,0-137.84,0-171.55C461.5,94.699,366.8,0,250,0C133.191,0,38.5,94.699,38.5,211.5z"/>
</g></g><g transform="translate(420,210) scale(0.07,0.07)"><g transform="" style="fill: rgb(255, 255, 255);">
<path d="M38.5,211.5c0,42.907,0,123.188,0,171.55c0,23.857,0,39.95,0,39.95v17.5V470v30h423v-30v-29.5V423c0,0,0-16.216,0-39.95
	c0-51.332,0-137.84,0-171.55C461.5,94.699,366.8,0,250,0C133.191,0,38.5,94.699,38.5,211.5z"/>
</g></g><g transform="translate(490,210) scale(0.07,0.07)"><g transform="" style="fill: rgb(255, 255, 255);">
<path d="M250,38.5c116.813,0,211.5,94.693,211.5,211.5c0,116.813-94.687,211.5-211.5,211.5c-116.807,0-211.5-94.687-211.5-211.5
	C38.5,133.193,133.193,38.5,250,38.5z"/>
</g></g><g transform="translate(560,210) scale(0.07,0.07)"><g transform="" style="fill: rgb(255, 255, 255);">
<polygon points="38.5,250 38.5,500 461.5,500 461.5,250 461.5,0 38.5,0 "/>
</g></g><g transform="translate(630,210) scale(0.07,0.07)"><g transform="" style="fill: rgb(255, 255, 255);">
<path d="M461.5,288.5c0-42.907,0-123.188,0-171.55c0-23.857,0-39.95,0-39.95V59.5V30V0h-423v30v29.5V77c0,0,0,16.216,0,39.95
	c0,51.332,0,137.84,0,171.55C38.5,405.301,133.2,500,250,500C366.809,500,461.5,405.301,461.5,288.5z"/>
</g></g><g transform="translate(700,210) scale(0.07,0.07)"><g transform="" style="fill: rgb(255, 255, 255);">
<path d="M461.5,288.5c0-42.907,0-123.188,0-171.55c0-23.857,0-39.95,0-39.95V59.5V30V0h-423v30v29.5V77c0,0,0,16.216,0,39.95
	c0,51.332,0,137.84,0,171.55C38.5,405.301,133.2,500,250,500C366.809,500,461.5,405.301,461.5,288.5z"/>
</g></g><g transform="translate(350,245) scale(0.07,0.07)"><g transform="" style="fill: rgb(255, 255, 255);">
<polygon points="38.5,250 38.5,500 461.5,500 461.5,250 461.5,0 38.5,0 "/>
</g></g><g transform="translate(385,245) scale(0.07,0.07)"><g transform="" style="fill: rgb(255, 255, 255);">
<path d="M38.5,211.5c0,42.907,0,123.188,0,171.55c0,23.857,0,39.95,0,39.95v17.5V470v30h423v-30v-29.5V423c0,0,0-16.216,0-39.95
	c0-51.332,0-137.84,0-171.55C461.5,94.699,366.8,0,250,0C133.191,0,38.5,94.699,38.5,211.5z"/>
</g></g><g transform="translate(420,245) scale(0.07,0.07)"><g transform="" style="fill: rgb(255, 255, 255);">
<path d="M461.5,288.5c0-42.907,0-123.188,0-171.55c0-23.857,0-39.95,0-39.95V59.5V30V0h-423v30v29.5V77c0,0,0,16.216,0,39.95
	c0,51.332,0,137.84,0,171.55C38.5,405.301,133.2,500,250,500C366.809,500,461.5,405.301,461.5,288.5z"/>
</g></g><g transform="translate(455,245) scale(0.07,0.07)"><g transform="" style="fill: rgb(255, 255, 255);">
<path d="M38.5,211.5c0,42.907,0,123.188,0,171.55c0,23.857,0,39.95,0,39.95v17.5V470v30h423v-30v-29.5V423c0,0,0-16.216,0-39.95
	c0-51.332,0-137.84,0-171.55C461.5,94.699,366.8,0,250,0C133.191,0,38.5,94.699,38.5,211.5z"/>
</g></g><g transform="translate(525,245) scale(0.07,0.07)"><g transform="" style="fill: rgb(255, 255, 255);">
<path d="M250,38.5c116.813,0,211.5,94.693,211.5,211.5c0,116.813-94.687,211.5-211.5,211.5c-116.807,0-211.5-94.687-211.5-211.5
	C38.5,133.193,133.193,38.5,250,38.5z"/>
</g></g><g transform="translate(560,245) scale(0.07,0.07)"><g transform="" style="fill: rgb(255, 255, 255);">
<path d="M461.5,288.5c0-42.907,0-123.188,0-171.55c0-23.857,0-39.95,0-39.95V59.5V30V0h-423v30v29.5V77c0,0,0,16.216,0,39.95
	c0,51.332,0,137.84,0,171.55C38.5,405.301,133.2,500,250,500C366.809,500,461.5,405.301,461.5,288.5z"/>
</g></g><g transform="translate(665,245) scale(0.07,0.07)"><g transform="" style="fill: rgb(255, 255, 255);">
<path d="M38.5,211.5c0,42.907,0,123.188,0,171.55c0,23.857,0,39.95,0,39.95v17.5V470v30h423v-30v-29.5V423c0,0,0-16.216,0-39.95
	c0-51.332,0-137.84,0-171.55C461.5,94.699,366.8,0,250,0C133.191,0,38.5,94.699,38.5,211.5z"/>
</g></g><g transform="translate(0,280) scale(0.07,0.07)"><g transform="" style="fill: rgb(255, 255, 255);">
<path d="M38.5,211.5c0,42.907,0,123.188,0,171.55c0,23.857,0,39.95,0,39.95v17.5V470v30h423v-30v-29.5V423c0,0,0-16.216,0-39.95
	c0-51.332,0-137.84,0-171.55C461.5,94.699,366.8,0,250,0C133.191,0,38.5,94.699,38.5,211.5z"/>
</g></g><g transform="translate(105,280) scale(0.07,0.07)"><g transform="" style="fill: rgb(255, 255, 255);">
<path d="M38.5,211.5c0,42.907,0,123.188,0,171.55c0,23.857,0,39.95,0,39.95v17.5V470v30h423v-30v-29.5V423c0,0,0-16.216,0-39.95
	c0-51.332,0-137.84,0-171.55C461.5,94.699,366.8,0,250,0C133.191,0,38.5,94.699,38.5,211.5z"/>
</g></g><g transform="translate(140,280) scale(0.07,0.07)"><g transform="" style="fill: rgb(255, 255, 255);">
<path d="M250,38.5c116.813,0,211.5,94.693,211.5,211.5c0,116.813-94.687,211.5-211.5,211.5c-116.807,0-211.5-94.687-211.5-211.5
	C38.5,133.193,133.193,38.5,250,38.5z"/>
</g></g><g transform="translate(175,280) scale(0.07,0.07)"><g transform="" style="fill: rgb(255, 255, 255);">
<path d="M250,38.5c116.813,0,211.5,94.693,211.5,211.5c0,116.813-94.687,211.5-211.5,211.5c-116.807,0-211.5-94.687-211.5-211.5
	C38.5,133.193,133.193,38.5,250,38.5z"/>
</g></g><g transform="translate(210,280) scale(0.07,0.07)"><g transform="" style="fill: rgb(255, 255, 255);">
<path d="M250,38.5c116.813,0,211.5,94.693,211.5,211.5c0,116.813-94.687,211.5-211.5,211.5c-116.807,0-211.5-94.687-211.5-211.5
	C38.5,133.193,133.193,38.5,250,38.5z"/>
</g></g><g transform="translate(245,280) scale(0.07,0.07)"><g transform="" style="fill: rgb(255, 255, 255);">
<path d="M250,38.5c116.813,0,211.5,94.693,211.5,211.5c0,116.813-94.687,211.5-211.5,211.5c-116.807,0-211.5-94.687-211.5-211.5
	C38.5,133.193,133.193,38.5,250,38.5z"/>
</g></g><g transform="translate(280,280) scale(0.07,0.07)"><g transform="" style="fill: rgb(255, 255, 255);">
<path d="M38.5,211.5c0,42.907,0,123.188,0,171.55c0,23.857,0,39.95,0,39.95v17.5V470v30h423v-30v-29.5V423c0,0,0-16.216,0-39.95
	c0-51.332,0-137.84,0-171.55C461.5,94.699,366.8,0,250,0C133.191,0,38.5,94.699,38.5,211.5z"/>
</g></g><g transform="translate(350,280) scale(0.07,0.07)"><g transform="" style="fill: rgb(255, 255, 255);">
<polygon points="38.5,250 38.5,500 461.5,500 461.5,250 461.5,0 38.5,0 "/>
</g></g><g transform="translate(385,280) scale(0.07,0.07)"><g transform="" style="fill: rgb(255, 255, 255);">
<path d="M461.5,288.5c0-42.907,0-123.188,0-171.55c0-23.857,0-39.95,0-39.95V59.5V30V0h-423v30v29.5V77c0,0,0,16.216,0,39.95
	c0,51.332,0,137.84,0,171.55C38.5,405.301,133.2,500,250,500C366.809,500,461.5,405.301,461.5,288.5z"/>
</g></g><g transform="translate(455,280) scale(0.07,0.07)"><g transform="" style="fill: rgb(255, 255, 255);">
<polygon points="38.5,250 38.5,500 461.5,500 461.5,250 461.5,0 38.5,0 "/>
</g></g><g transform="translate(595,280) scale(0.07,0.07)"><g transform="" style="fill: rgb(255, 255, 255);">
<path d="M250,38.5c116.813,0,211.5,94.693,211.5,211.5c0,116.813-94.687,211.5-211.5,211.5c-116.807,0-211.5-94.687-211.5-211.5
	C38.5,133.193,133.193,38.5,250,38.5z"/>
</g></g><g transform="translate(665,280) scale(0.07,0.07)"><g transform="" style="fill: rgb(255, 255, 255);">
<polygon points="38.5,250 38.5,500 461.5,500 461.5,250 461.5,0 38.5,0 "/>
</g></g><g transform="translate(735,280) scale(0.07,0.07)"><g transform="" style="fill: rgb(255, 255, 255);">
<path d="M38.5,211.5c0,42.907,0,123.188,0,171.55c0,23.857,0,39.95,0,39.95v17.5V470v30h423v-30v-29.5V423c0,0,0-16.216,0-39.95
	c0-51.332,0-137.84,0-171.55C461.5,94.699,366.8,0,250,0C133.191,0,38.5,94.699,38.5,211.5z"/>
</g></g><g transform="translate(840,280) scale(0.07,0.07)"><g transform="" style="fill: rgb(255, 255, 255);">
<path d="M38.5,211.5c0,42.907,0,123.188,0,171.55c0,23.857,0,39.95,0,39.95v17.5V470v30h423v-30v-29.5V423c0,0,0-16.216,0-39.95
	c0-51.332,0-137.84,0-171.55C461.5,94.699,366.8,0,250,0C133.191,0,38.5,94.699,38.5,211.5z"/>
</g></g><g transform="translate(910,280) scale(0.07,0.07)"><g transform="" style="fill: rgb(255, 255, 255);">
<path d="M38.5,211.5c0,42.907,0,123.188,0,171.55c0,23.857,0,39.95,0,39.95v17.5V470v30h423v-30v-29.5V423c0,0,0-16.216,0-39.95
	c0-51.332,0-137.84,0-171.55C461.5,94.699,366.8,0,250,0C133.191,0,38.5,94.699,38.5,211.5z"/>
</g></g><g transform="translate(945,280) scale(0.07,0.07)"><g transform="" style="fill: rgb(255, 255, 255);">
<path d="M38.5,211.5c0,42.907,0,123.188,0,171.55c0,23.857,0,39.95,0,39.95v17.5V470v30h423v-30v-29.5V423c0,0,0-16.216,0-39.95
	c0-51.332,0-137.84,0-171.55C461.5,94.699,366.8,0,250,0C133.191,0,38.5,94.699,38.5,211.5z"/>
</g></g><g transform="translate(980,280) scale(0.07,0.07)"><g transform="" style="fill: rgb(255, 255, 255);">
<path d="M250,38.5c116.813,0,211.5,94.693,211.5,211.5c0,116.813-94.687,211.5-211.5,211.5c-116.807,0-211.5-94.687-211.5-211.5
	C38.5,133.193,133.193,38.5,250,38.5z"/>
</g></g><g transform="translate(0,315) scale(0.07,0.07)"><g transform="" style="fill: rgb(255, 255, 255);">
<polygon points="38.5,250 38.5,500 461.5,500 461.5,250 461.5,0 38.5,0 "/>
</g></g><g transform="translate(35,315) scale(0.07,0.07)"><g transform="" style="fill: rgb(255, 255, 255);">
<path d="M38.5,211.5c0,42.907,0,123.188,0,171.55c0,23.857,0,39.95,0,39.95v17.5V470v30h423v-30v-29.5V423c0,0,0-16.216,0-39.95
	c0-51.332,0-137.84,0-171.55C461.5,94.699,366.8,0,250,0C133.191,0,38.5,94.699,38.5,211.5z"/>
</g></g><g transform="translate(70,315) scale(0.07,0.07)"><g transform="" style="fill: rgb(255, 255, 255);">
<path d="M38.5,211.5c0,42.907,0,123.188,0,171.55c0,23.857,0,39.95,0,39.95v17.5V470v30h423v-30v-29.5V423c0,0,0-16.216,0-39.95
	c0-51.332,0-137.84,0-171.55C461.5,94.699,366.8,0,250,0C133.191,0,38.5,94.699,38.5,211.5z"/>
</g></g><g transform="translate(105,315) scale(0.07,0.07)"><g transform="" style="fill: rgb(255, 255, 255);">
<path d="M461.5,288.5c0-42.907,0-123.188,0-171.55c0-23.857,0-39.95,0-39.95V59.5V30V0h-423v30v29.5V77c0,0,0,16.216,0,39.95
	c0,51.332,0,137.84,0,171.55C38.5,405.301,133.2,500,250,500C366.809,500,461.5,405.301,461.5,288.5z"/>
</g></g><g transform="translate(280,315) scale(0.07,0.07)"><g transform="" style="fill: rgb(255, 255, 255);">
<path d="M461.5,288.5c0-42.907,0-123.188,0-171.55c0-23.857,0-39.95,0-39.95V59.5V30V0h-423v30v29.5V77c0,0,0,16.216,0,39.95
	c0,51.332,0,137.84,0,171.55C38.5,405.301,133.2,500,250,500C366.809,500,461.5,405.301,461.5,288.5z"/>
</g></g><g transform="translate(350,315) scale(0.07,0.07)"><g transform="" style="fill: rgb(255, 255, 255);">
<path d="M461.5,288.5c0-42.907,0-123.188,0-171.55c0-23.857,0-39.95,0-39.95V59.5V30V0h-423v30v29.5V77c0,0,0,16.216,0,39.95
	c0,51.332,0,137.84,0,171.55C38.5,405.301,133.2,500,250,500C366.809,500,461.5,405.301,461.5,288.5z"/>
</g></g><g transform="translate(455,315) scale(0.07,0.07)"><g transform="" style="fill: rgb(255, 255, 255);">
<polygon points="38.5,250 38.5,500 461.5,500 461.5,250 461.5,0 38.5,0 "/>
</g></g><g transform="translate(560,315) scale(0.07,0.07)"><g transform="" style="fill: rgb(255, 255, 255);">
<path d="M38.5,211.5c0,42.907,0,123.188,0,171.55c0,23.857,0,39.95,0,39.95v17.5V470v30h423v-30v-29.5V423c0,0,0-16.216,0-39.95
	c0-51.332,0-137.84,0-171.55C461.5,94.699,366.8,0,250,0C133.191,0,38.5,94.699,38.5,211.5z"/>
</g></g><g transform="translate(665,315) scale(0.07,0.07)"><g transform="" style="fill: rgb(255, 255, 255);">
<path d="M461.5,288.5c0-42.907,0-123.188,0-171.55c0-23.857,0-39.95,0-39.95V59.5V30V0h-423v30v29.5V77c0,0,0,16.216,0,39.95
	c0,51.332,0,137.84,0,171.55C38.5,405.301,133.2,500,250,500C366.809,500,461.5,405.301,461.5,288.5z"/>
</g></g><g transform="translate(735,315) scale(0.07,0.07)"><g transform="" style="fill: rgb(255, 255, 255);">
<path d="M461.5,288.5c0-42.907,0-123.188,0-171.55c0-23.857,0-39.95,0-39.95V59.5V30V0h-423v30v29.5V77c0,0,0,16.216,0,39.95
	c0,51.332,0,137.84,0,171.55C38.5,405.301,133.2,500,250,500C366.809,500,461.5,405.301,461.5,288.5z"/>
</g></g><g transform="translate(805,315) scale(0.07,0.07)"><g transform="" style="fill: rgb(255, 255, 255);">
<path d="M38.5,211.5c0,42.907,0,123.188,0,171.55c0,23.857,0,39.95,0,39.95v17.5V470v30h423v-30v-29.5V423c0,0,0-16.216,0-39.95
	c0-51.332,0-137.84,0-171.55C461.5,94.699,366.8,0,250,0C133.191,0,38.5,94.699,38.5,211.5z"/>
</g></g><g transform="translate(840,315) scale(0.07,0.07)"><g transform="" style="fill: rgb(255, 255, 255);">
<polygon points="38.5,250 38.5,500 461.5,500 461.5,250 461.5,0 38.5,0 "/>
</g></g><g transform="translate(910,315) scale(0.07,0.07)"><g transform="" style="fill: rgb(255, 255, 255);">
<polygon points="38.5,250 38.5,500 461.5,500 461.5,250 461.5,0 38.5,0 "/>
</g></g><g transform="translate(945,315) scale(0.07,0.07)"><g transform="" style="fill: rgb(255, 255, 255);">
<path d="M461.5,288.5c0-42.907,0-123.188,0-171.55c0-23.857,0-39.95,0-39.95V59.5V30V0h-423v30v29.5V77c0,0,0,16.216,0,39.95
	c0,51.332,0,137.84,0,171.55C38.5,405.301,133.2,500,250,500C366.809,500,461.5,405.301,461.5,288.5z"/>
</g></g><g transform="translate(0,350) scale(0.07,0.07)"><g transform="" style="fill: rgb(255, 255, 255);">
<path d="M461.5,288.5c0-42.907,0-123.188,0-171.55c0-23.857,0-39.95,0-39.95V59.5V30V0h-423v30v29.5V77c0,0,0,16.216,0,39.95
	c0,51.332,0,137.84,0,171.55C38.5,405.301,133.2,500,250,500C366.809,500,461.5,405.301,461.5,288.5z"/>
</g></g><g transform="translate(35,350) scale(0.07,0.07)"><g transform="" style="fill: rgb(255, 255, 255);">
<polygon points="38.5,250 38.5,500 461.5,500 461.5,250 461.5,0 38.5,0 "/>
</g></g><g transform="translate(70,350) scale(0.07,0.07)"><g transform="" style="fill: rgb(255, 255, 255);">
<polygon points="38.5,250 38.5,500 461.5,500 461.5,250 461.5,0 38.5,0 "/>
</g></g><g transform="translate(175,350) scale(0.07,0.07)"><g transform="" style="fill: rgb(255, 255, 255);">
<path d="M38.5,211.5c0,42.907,0,123.188,0,171.55c0,23.857,0,39.95,0,39.95v17.5V470v30h423v-30v-29.5V423c0,0,0-16.216,0-39.95
	c0-51.332,0-137.84,0-171.55C461.5,94.699,366.8,0,250,0C133.191,0,38.5,94.699,38.5,211.5z"/>
</g></g><g transform="translate(210,350) scale(0.07,0.07)"><g transform="" style="fill: rgb(255, 255, 255);">
<path d="M250,38.5c116.813,0,211.5,94.693,211.5,211.5c0,116.813-94.687,211.5-211.5,211.5c-116.807,0-211.5-94.687-211.5-211.5
	C38.5,133.193,133.193,38.5,250,38.5z"/>
</g></g><g transform="translate(245,350) scale(0.07,0.07)"><g transform="" style="fill: rgb(255, 255, 255);">
<path d="M38.5,211.5c0,42.907,0,123.188,0,171.55c0,23.857,0,39.95,0,39.95v17.5V470v30h423v-30v-29.5V423c0,0,0-16.216,0-39.95
	c0-51.332,0-137.84,0-171.55C461.5,94.699,366.8,0,250,0C133.191,0,38.5,94.699,38.5,211.5z"/>
</g></g><g transform="translate(420,350) scale(0.07,0.07)"><g transform="" style="fill: rgb(255, 255, 255);">
<path d="M38.5,211.5c0,42.907,0,123.188,0,171.55c0,23.857,0,39.95,0,39.95v17.5V470v30h423v-30v-29.5V423c0,0,0-16.216,0-39.95
	c0-51.332,0-137.84,0-171.55C461.5,94.699,366.8,0,250,0C133.191,0,38.5,94.699,38.5,211.5z"/>
</g></g><g transform="translate(455,350) scale(0.07,0.07)"><g transform="" style="fill: rgb(255, 255, 255);">
<polygon points="38.5,250 38.5,500 461.5,500 461.5,250 461.5,0 38.5,0 "/>
</g></g><g transform="translate(525,350) scale(0.07,0.07)"><g transform="" style="fill: rgb(255, 255, 255);">
<path d="M250,38.5c116.813,0,211.5,94.693,211.5,211.5c0,116.813-94.687,211.5-211.5,211.5c-116.807,0-211.5-94.687-211.5-211.5
	C38.5,133.193,133.193,38.5,250,38.5z"/>
</g></g><g transform="translate(560,350) scale(0.07,0.07)"><g transform="" style="fill: rgb(255, 255, 255);">
<polygon points="38.5,250 38.5,500 461.5,500 461.5,250 461.5,0 38.5,0 "/>
</g></g><g transform="translate(630,350) scale(0.07,0.07)"><g transform="" style="fill: rgb(255, 255, 255);">
<path d="M250,38.5c116.813,0,211.5,94.693,211.5,211.5c0,116.813-94.687,211.5-211.5,211.5c-116.807,0-211.5-94.687-211.5-211.5
	C38.5,133.193,133.193,38.5,250,38.5z"/>
</g></g><g transform="translate(700,350) scale(0.07,0.07)"><g transform="" style="fill: rgb(255, 255, 255);">
<path d="M38.5,211.5c0,42.907,0,123.188,0,171.55c0,23.857,0,39.95,0,39.95v17.5V470v30h423v-30v-29.5V423c0,0,0-16.216,0-39.95
	c0-51.332,0-137.84,0-171.55C461.5,94.699,366.8,0,250,0C133.191,0,38.5,94.699,38.5,211.5z"/>
</g></g><g transform="translate(805,350) scale(0.07,0.07)"><g transform="" style="fill: rgb(255, 255, 255);">
<polygon points="38.5,250 38.5,500 461.5,500 461.5,250 461.5,0 38.5,0 "/>
</g></g><g transform="translate(840,350) scale(0.07,0.07)"><g transform="" style="fill: rgb(255, 255, 255);">
<path d="M461.5,288.5c0-42.907,0-123.188,0-171.55c0-23.857,0-39.95,0-39.95V59.5V30V0h-423v30v29.5V77c0,0,0,16.216,0,39.95
	c0,51.332,0,137.84,0,171.55C38.5,405.301,133.2,500,250,500C366.809,500,461.5,405.301,461.5,288.5z"/>
</g></g><g transform="translate(910,350) scale(0.07,0.07)"><g transform="" style="fill: rgb(255, 255, 255);">
<path d="M461.5,288.5c0-42.907,0-123.188,0-171.55c0-23.857,0-39.95,0-39.95V59.5V30V0h-423v30v29.5V77c0,0,0,16.216,0,39.95
	c0,51.332,0,137.84,0,171.55C38.5,405.301,133.2,500,250,500C366.809,500,461.5,405.301,461.5,288.5z"/>
</g></g><g transform="translate(35,385) scale(0.07,0.07)"><g transform="" style="fill: rgb(255, 255, 255);">
<path d="M461.5,288.5c0-42.907,0-123.188,0-171.55c0-23.857,0-39.95,0-39.95V59.5V30V0h-423v30v29.5V77c0,0,0,16.216,0,39.95
	c0,51.332,0,137.84,0,171.55C38.5,405.301,133.2,500,250,500C366.809,500,461.5,405.301,461.5,288.5z"/>
</g></g><g transform="translate(70,385) scale(0.07,0.07)"><g transform="" style="fill: rgb(255, 255, 255);">
<polygon points="38.5,250 38.5,500 461.5,500 461.5,250 461.5,0 38.5,0 "/>
</g></g><g transform="translate(140,385) scale(0.07,0.07)"><g transform="" style="fill: rgb(255, 255, 255);">
<path d="M250,38.5c116.813,0,211.5,94.693,211.5,211.5c0,116.813-94.687,211.5-211.5,211.5c-116.807,0-211.5-94.687-211.5-211.5
	C38.5,133.193,133.193,38.5,250,38.5z"/>
</g></g><g transform="translate(175,385) scale(0.07,0.07)"><g transform="" style="fill: rgb(255, 255, 255);">
<polygon points="38.5,250 38.5,500 461.5,500 461.5,250 461.5,0 38.5,0 "/>
</g></g><g transform="translate(245,385) scale(0.07,0.07)"><g transform="" style="fill: rgb(255, 255, 255);">
<polygon points="38.5,250 38.5,500 461.5,500 461.5,250 461.5,0 38.5,0 "/>
</g></g><g transform="translate(280,385) scale(0.07,0.07)"><g transform="" style="fill: rgb(255, 255, 255);">
<path d="M38.5,211.5c0,42.907,0,123.188,0,171.55c0,23.857,0,39.95,0,39.95v17.5V470v30h423v-30v-29.5V423c0,0,0-16.216,0-39.95
	c0-51.332,0-137.84,0-171.55C461.5,94.699,366.8,0,250,0C133.191,0,38.5,94.699,38.5,211.5z"/>
</g></g><g transform="translate(385,385) scale(0.07,0.07)"><g transform="" style="fill: rgb(255, 255, 255);">
<path d="M250,38.5c116.813,0,211.5,94.693,211.5,211.5c0,116.813-94.687,211.5-211.5,211.5c-116.807,0-211.5-94.687-211.5-211.5
	C38.5,133.193,133.193,38.5,250,38.5z"/>
</g></g><g transform="translate(420,385) scale(0.07,0.07)"><g transform="" style="fill: rgb(255, 255, 255);">
<path d="M461.5,288.5c0-42.907,0-123.188,0-171.55c0-23.857,0-39.95,0-39.95V59.5V30V0h-423v30v29.5V77c0,0,0,16.216,0,39.95
	c0,51.332,0,137.84,0,171.55C38.5,405.301,133.2,500,250,500C366.809,500,461.5,405.301,461.5,288.5z"/>
</g></g><g transform="translate(455,385) scale(0.07,0.07)"><g transform="" style="fill: rgb(255, 255, 255);">
<polygon points="38.5,250 38.5,500 461.5,500 461.5,250 461.5,0 38.5,0 "/>
</g></g><g transform="translate(560,385) scale(0.07,0.07)"><g transform="" style="fill: rgb(255, 255, 255);">
<polygon points="38.5,250 38.5,500 461.5,500 461.5,250 461.5,0 38.5,0 "/>
</g></g><g transform="translate(595,385) scale(0.07,0.07)"><g transform="" style="fill: rgb(255, 255, 255);">
<path d="M250,38.5c116.813,0,211.5,94.693,211.5,211.5c0,116.813-94.687,211.5-211.5,211.5c-116.807,0-211.5-94.687-211.5-211.5
	C38.5,133.193,133.193,38.5,250,38.5z"/>
</g></g><g transform="translate(700,385) scale(0.07,0.07)"><g transform="" style="fill: rgb(255, 255, 255);">
<polygon points="38.5,250 38.5,500 461.5,500 461.5,250 461.5,0 38.5,0 "/>
</g></g><g transform="translate(735,385) scale(0.07,0.07)"><g transform="" style="fill: rgb(255, 255, 255);">
<path d="M250,38.5c116.813,0,211.5,94.693,211.5,211.5c0,116.813-94.687,211.5-211.5,211.5c-116.807,0-211.5-94.687-211.5-211.5
	C38.5,133.193,133.193,38.5,250,38.5z"/>
</g></g><g transform="translate(770,385) scale(0.07,0.07)"><g transform="" style="fill: rgb(255, 255, 255);">
<path d="M38.5,211.5c0,42.907,0,123.188,0,171.55c0,23.857,0,39.95,0,39.95v17.5V470v30h423v-30v-29.5V423c0,0,0-16.216,0-39.95
	c0-51.332,0-137.84,0-171.55C461.5,94.699,366.8,0,250,0C133.191,0,38.5,94.699,38.5,211.5z"/>
</g></g><g transform="translate(805,385) scale(0.07,0.07)"><g transform="" style="fill: rgb(255, 255, 255);">
<polygon points="38.5,250 38.5,500 461.5,500 461.5,250 461.5,0 38.5,0 "/>
</g></g><g transform="translate(875,385) scale(0.07,0.07)"><g transform="" style="fill: rgb(255, 255, 255);">
<path d="M250,38.5c116.813,0,211.5,94.693,211.5,211.5c0,116.813-94.687,211.5-211.5,211.5c-116.807,0-211.5-94.687-211.5-211.5
	C38.5,133.193,133.193,38.5,250,38.5z"/>
</g></g><g transform="translate(980,385) scale(0.07,0.07)"><g transform="" style="fill: rgb(255, 255, 255);">
<path d="M38.5,211.5c0,42.907,0,123.188,0,171.55c0,23.857,0,39.95,0,39.95v17.5V470v30h423v-30v-29.5V423c0,0,0-16.216,0-39.95
	c0-51.332,0-137.84,0-171.55C461.5,94.699,366.8,0,250,0C133.191,0,38.5,94.699,38.5,211.5z"/>
</g></g><g transform="translate(0,420) scale(0.07,0.07)"><g transform="" style="fill: rgb(255, 255, 255);">
<path d="M250,38.5c116.813,0,211.5,94.693,211.5,211.5c0,116.813-94.687,211.5-211.5,211.5c-116.807,0-211.5-94.687-211.5-211.5
	C38.5,133.193,133.193,38.5,250,38.5z"/>
</g></g><g transform="translate(70,420) scale(0.07,0.07)"><g transform="" style="fill: rgb(255, 255, 255);">
<polygon points="38.5,250 38.5,500 461.5,500 461.5,250 461.5,0 38.5,0 "/>
</g></g><g transform="translate(175,420) scale(0.07,0.07)"><g transform="" style="fill: rgb(255, 255, 255);">
<polygon points="38.5,250 38.5,500 461.5,500 461.5,250 461.5,0 38.5,0 "/>
</g></g><g transform="translate(210,420) scale(0.07,0.07)"><g transform="" style="fill: rgb(255, 255, 255);">
<path d="M250,38.5c116.813,0,211.5,94.693,211.5,211.5c0,116.813-94.687,211.5-211.5,211.5c-116.807,0-211.5-94.687-211.5-211.5
	C38.5,133.193,133.193,38.5,250,38.5z"/>
</g></g><g transform="translate(245,420) scale(0.07,0.07)"><g transform="" style="fill: rgb(255, 255, 255);">
<path d="M461.5,288.5c0-42.907,0-123.188,0-171.55c0-23.857,0-39.95,0-39.95V59.5V30V0h-423v30v29.5V77c0,0,0,16.216,0,39.95
	c0,51.332,0,137.84,0,171.55C38.5,405.301,133.2,500,250,500C366.809,500,461.5,405.301,461.5,288.5z"/>
</g></g><g transform="translate(280,420) scale(0.07,0.07)"><g transform="" style="fill: rgb(255, 255, 255);">
<polygon points="38.5,250 38.5,500 461.5,500 461.5,250 461.5,0 38.5,0 "/>
</g></g><g transform="translate(315,420) scale(0.07,0.07)"><g transform="" style="fill: rgb(255, 255, 255);">
<path d="M250,38.5c116.813,0,211.5,94.693,211.5,211.5c0,116.813-94.687,211.5-211.5,211.5c-116.807,0-211.5-94.687-211.5-211.5
	C38.5,133.193,133.193,38.5,250,38.5z"/>
</g></g><g transform="translate(455,420) scale(0.07,0.07)"><g transform="" style="fill: rgb(255, 255, 255);">
<polygon points="38.5,250 38.5,500 461.5,500 461.5,250 461.5,0 38.5,0 "/>
</g></g><g transform="translate(525,420) scale(0.07,0.07)"><g transform="" style="fill: rgb(255, 255, 255);">
<path d="M250,38.5c116.813,0,211.5,94.693,211.5,211.5c0,116.813-94.687,211.5-211.5,211.5c-116.807,0-211.5-94.687-211.5-211.5
	C38.5,133.193,133.193,38.5,250,38.5z"/>
</g></g><g transform="translate(560,420) scale(0.07,0.07)"><g transform="" style="fill: rgb(255, 255, 255);">
<polygon points="38.5,250 38.5,500 461.5,500 461.5,250 461.5,0 38.5,0 "/>
</g></g><g transform="translate(700,420) scale(0.07,0.07)"><g transform="" style="fill: rgb(255, 255, 255);">
<path d="M461.5,288.5c0-42.907,0-123.188,0-171.55c0-23.857,0-39.95,0-39.95V59.5V30V0h-423v30v29.5V77c0,0,0,16.216,0,39.95
	c0,51.332,0,137.84,0,171.55C38.5,405.301,133.2,500,250,500C366.809,500,461.5,405.301,461.5,288.5z"/>
</g></g><g transform="translate(770,420) scale(0.07,0.07)"><g transform="" style="fill: rgb(255, 255, 255);">
<polygon points="38.5,250 38.5,500 461.5,500 461.5,250 461.5,0 38.5,0 "/>
</g></g><g transform="translate(805,420) scale(0.07,0.07)"><g transform="" style="fill: rgb(255, 255, 255);">
<polygon points="38.5,250 38.5,500 461.5,500 461.5,250 461.5,0 38.5,0 "/>
</g></g><g transform="translate(980,420) scale(0.07,0.07)"><g transform="" style="fill: rgb(255, 255, 255);">
<polygon points="38.5,250 38.5,500 461.5,500 461.5,250 461.5,0 38.5,0 "/>
</g></g><g transform="translate(70,455) scale(0.07,0.07)"><g transform="" style="fill: rgb(255, 255, 255);">
<path d="M461.5,288.5c0-42.907,0-123.188,0-171.55c0-23.857,0-39.95,0-39.95V59.5V30V0h-423v30v29.5V77c0,0,0,16.216,0,39.95
	c0,51.332,0,137.84,0,171.55C38.5,405.301,133.2,500,250,500C366.809,500,461.5,405.301,461.5,288.5z"/>
</g></g><g transform="translate(105,455) scale(0.07,0.07)"><g transform="" style="fill: rgb(255, 255, 255);">
<path d="M250,38.5c116.813,0,211.5,94.693,211.5,211.5c0,116.813-94.687,211.5-211.5,211.5c-116.807,0-211.5-94.687-211.5-211.5
	C38.5,133.193,133.193,38.5,250,38.5z"/>
</g></g><g transform="translate(175,455) scale(0.07,0.07)"><g transform="" style="fill: rgb(255, 255, 255);">
<polygon points="38.5,250 38.5,500 461.5,500 461.5,250 461.5,0 38.5,0 "/>
</g></g><g transform="translate(280,455) scale(0.07,0.07)"><g transform="" style="fill: rgb(255, 255, 255);">
<path d="M461.5,288.5c0-42.907,0-123.188,0-171.55c0-23.857,0-39.95,0-39.95V59.5V30V0h-423v30v29.5V77c0,0,0,16.216,0,39.95
	c0,51.332,0,137.84,0,171.55C38.5,405.301,133.2,500,250,500C366.809,500,461.5,405.301,461.5,288.5z"/>
</g></g><g transform="translate(350,455) scale(0.07,0.07)"><g transform="" style="fill: rgb(255, 255, 255);">
<path d="M250,38.5c116.813,0,211.5,94.693,211.5,211.5c0,116.813-94.687,211.5-211.5,211.5c-116.807,0-211.5-94.687-211.5-211.5
	C38.5,133.193,133.193,38.5,250,38.5z"/>
</g></g><g transform="translate(385,455) scale(0.07,0.07)"><g transform="" style="fill: rgb(255, 255, 255);">
<path d="M38.5,211.5c0,42.907,0,123.188,0,171.55c0,23.857,0,39.95,0,39.95v17.5V470v30h423v-30v-29.5V423c0,0,0-16.216,0-39.95
	c0-51.332,0-137.84,0-171.55C461.5,94.699,366.8,0,250,0C133.191,0,38.5,94.699,38.5,211.5z"/>
</g></g><g transform="translate(420,455) scale(0.07,0.07)"><g transform="" style="fill: rgb(255, 255, 255);">
<path d="M250,38.5c116.813,0,211.5,94.693,211.5,211.5c0,116.813-94.687,211.5-211.5,211.5c-116.807,0-211.5-94.687-211.5-211.5
	C38.5,133.193,133.193,38.5,250,38.5z"/>
</g></g><g transform="translate(455,455) scale(0.07,0.07)"><g transform="" style="fill: rgb(255, 255, 255);">
<polygon points="38.5,250 38.5,500 461.5,500 461.5,250 461.5,0 38.5,0 "/>
</g></g><g transform="translate(490,455) scale(0.07,0.07)"><g transform="" style="fill: rgb(255, 255, 255);">
<path d="M250,38.5c116.813,0,211.5,94.693,211.5,211.5c0,116.813-94.687,211.5-211.5,211.5c-116.807,0-211.5-94.687-211.5-211.5
	C38.5,133.193,133.193,38.5,250,38.5z"/>
</g></g><g transform="translate(560,455) scale(0.07,0.07)"><g transform="" style="fill: rgb(255, 255, 255);">
<polygon points="38.5,250 38.5,500 461.5,500 461.5,250 461.5,0 38.5,0 "/>
</g></g><g transform="translate(630,455) scale(0.07,0.07)"><g transform="" style="fill: rgb(255, 255, 255);">
<path d="M250,38.5c116.813,0,211.5,94.693,211.5,211.5c0,116.813-94.687,211.5-211.5,211.5c-116.807,0-211.5-94.687-211.5-211.5
	C38.5,133.193,133.193,38.5,250,38.5z"/>
</g></g><g transform="translate(770,455) scale(0.07,0.07)"><g transform="" style="fill: rgb(255, 255, 255);">
<polygon points="38.5,250 38.5,500 461.5,500 461.5,250 461.5,0 38.5,0 "/>
</g></g><g transform="translate(805,455) scale(0.07,0.07)"><g transform="" style="fill: rgb(255, 255, 255);">
<path d="M461.5,288.5c0-42.907,0-123.188,0-171.55c0-23.857,0-39.95,0-39.95V59.5V30V0h-423v30v29.5V77c0,0,0,16.216,0,39.95
	c0,51.332,0,137.84,0,171.55C38.5,405.301,133.2,500,250,500C366.809,500,461.5,405.301,461.5,288.5z"/>
</g></g><g transform="translate(840,455) scale(0.07,0.07)"><g transform="" style="fill: rgb(255, 255, 255);">
<path d="M38.5,211.5c0,42.907,0,123.188,0,171.55c0,23.857,0,39.95,0,39.95v17.5V470v30h423v-30v-29.5V423c0,0,0-16.216,0-39.95
	c0-51.332,0-137.84,0-171.55C461.5,94.699,366.8,0,250,0C133.191,0,38.5,94.699,38.5,211.5z"/>
</g></g><g transform="translate(875,455) scale(0.07,0.07)"><g transform="" style="fill: rgb(255, 255, 255);">
<path d="M250,38.5c116.813,0,211.5,94.693,211.5,211.5c0,116.813-94.687,211.5-211.5,211.5c-116.807,0-211.5-94.687-211.5-211.5
	C38.5,133.193,133.193,38.5,250,38.5z"/>
</g></g><g transform="translate(910,455) scale(0.07,0.07)"><g transform="" style="fill: rgb(255, 255, 255);">
<path d="M38.5,211.5c0,42.907,0,123.188,0,171.55c0,23.857,0,39.95,0,39.95v17.5V470v30h423v-30v-29.5V423c0,0,0-16.216,0-39.95
	c0-51.332,0-137.84,0-171.55C461.5,94.699,366.8,0,250,0C133.191,0,38.5,94.699,38.5,211.5z"/>
</g></g><g transform="translate(945,455) scale(0.07,0.07)"><g transform="" style="fill: rgb(255, 255, 255);">
<path d="M250,38.5c116.813,0,211.5,94.693,211.5,211.5c0,116.813-94.687,211.5-211.5,211.5c-116.807,0-211.5-94.687-211.5-211.5
	C38.5,133.193,133.193,38.5,250,38.5z"/>
</g></g><g transform="translate(980,455) scale(0.07,0.07)"><g transform="" style="fill: rgb(255, 255, 255);">
<polygon points="38.5,250 38.5,500 461.5,500 461.5,250 461.5,0 38.5,0 "/>
</g></g><g transform="translate(140,490) scale(0.07,0.07)"><g transform="" style="fill: rgb(255, 255, 255);">
<path d="M250,38.5c116.813,0,211.5,94.693,211.5,211.5c0,116.813-94.687,211.5-211.5,211.5c-116.807,0-211.5-94.687-211.5-211.5
	C38.5,133.193,133.193,38.5,250,38.5z"/>
</g></g><g transform="translate(175,490) scale(0.07,0.07)"><g transform="" style="fill: rgb(255, 255, 255);">
<path d="M461.5,288.5c0-42.907,0-123.188,0-171.55c0-23.857,0-39.95,0-39.95V59.5V30V0h-423v30v29.5V77c0,0,0,16.216,0,39.95
	c0,51.332,0,137.84,0,171.55C38.5,405.301,133.2,500,250,500C366.809,500,461.5,405.301,461.5,288.5z"/>
</g></g><g transform="translate(210,490) scale(0.07,0.07)"><g transform="" style="fill: rgb(255, 255, 255);">
<path d="M250,38.5c116.813,0,211.5,94.693,211.5,211.5c0,116.813-94.687,211.5-211.5,211.5c-116.807,0-211.5-94.687-211.5-211.5
	C38.5,133.193,133.193,38.5,250,38.5z"/>
</g></g><g transform="translate(245,490) scale(0.07,0.07)"><g transform="" style="fill: rgb(255, 255, 255);">
<path d="M38.5,211.5c0,42.907,0,123.188,0,171.55c0,23.857,0,39.95,0,39.95v17.5V470v30h423v-30v-29.5V423c0,0,0-16.216,0-39.95
	c0-51.332,0-137.84,0-171.55C461.5,94.699,366.8,0,250,0C133.191,0,38.5,94.699,38.5,211.5z"/>
</g></g><g transform="translate(385,490) scale(0.07,0.07)"><g transform="" style="fill: rgb(255, 255, 255);">
<polygon points="38.5,250 38.5,500 461.5,500 461.5,250 461.5,0 38.5,0 "/>
</g></g><g transform="translate(455,490) scale(0.07,0.07)"><g transform="" style="fill: rgb(255, 255, 255);">
<path d="M461.5,288.5c0-42.907,0-123.188,0-171.55c0-23.857,0-39.95,0-39.95V59.5V30V0h-423v30v29.5V77c0,0,0,16.216,0,39.95
	c0,51.332,0,137.84,0,171.55C38.5,405.301,133.2,500,250,500C366.809,500,461.5,405.301,461.5,288.5z"/>
</g></g><g transform="translate(560,490) scale(0.07,0.07)"><g transform="" style="fill: rgb(255, 255, 255);">
<path d="M461.5,288.5c0-42.907,0-123.188,0-171.55c0-23.857,0-39.95,0-39.95V59.5V30V0h-423v30v29.5V77c0,0,0,16.216,0,39.95
	c0,51.332,0,137.84,0,171.55C38.5,405.301,133.2,500,250,500C366.809,500,461.5,405.301,461.5,288.5z"/>
</g></g><g transform="translate(665,490) scale(0.07,0.07)"><g transform="" style="fill: rgb(255, 255, 255);">
<path d="M38.5,211.5c0,42.907,0,123.188,0,171.55c0,23.857,0,39.95,0,39.95v17.5V470v30h423v-30v-29.5V423c0,0,0-16.216,0-39.95
	c0-51.332,0-137.84,0-171.55C461.5,94.699,366.8,0,250,0C133.191,0,38.5,94.699,38.5,211.5z"/>
</g></g><g transform="translate(700,490) scale(0.07,0.07)"><g transform="" style="fill: rgb(255, 255, 255);">
<path d="M250,38.5c116.813,0,211.5,94.693,211.5,211.5c0,116.813-94.687,211.5-211.5,211.5c-116.807,0-211.5-94.687-211.5-211.5
	C38.5,133.193,133.193,38.5,250,38.5z"/>
</g></g><g transform="translate(735,490) scale(0.07,0.07)"><g transform="" style="fill: rgb(255, 255, 255);">
<path d="M250,38.5c116.813,0,211.5,94.693,211.5,211.5c0,116.813-94.687,211.5-211.5,211.5c-116.807,0-211.5-94.687-211.5-211.5
	C38.5,133.193,133.193,38.5,250,38.5z"/>
</g></g><g transform="translate(770,490) scale(0.07,0.07)"><g transform="" style="fill: rgb(255, 255, 255);">
<path d="M461.5,288.5c0-42.907,0-123.188,0-171.55c0-23.857,0-39.95,0-39.95V59.5V30V0h-423v30v29.5V77c0,0,0,16.216,0,39.95
	c0,51.332,0,137.84,0,171.55C38.5,405.301,133.2,500,250,500C366.809,500,461.5,405.301,461.5,288.5z"/>
</g></g><g transform="translate(840,490) scale(0.07,0.07)"><g transform="" style="fill: rgb(255, 255, 255);">
<polygon points="38.5,250 38.5,500 461.5,500 461.5,250 461.5,0 38.5,0 "/>
</g></g><g transform="translate(910,490) scale(0.07,0.07)"><g transform="" style="fill: rgb(255, 255, 255);">
<polygon points="38.5,250 38.5,500 461.5,500 461.5,250 461.5,0 38.5,0 "/>
</g></g><g transform="translate(980,490) scale(0.07,0.07)"><g transform="" style="fill: rgb(255, 255, 255);">
<polygon points="38.5,250 38.5,500 461.5,500 461.5,250 461.5,0 38.5,0 "/>
</g></g><g transform="translate(105,525) scale(0.07,0.07)"><g transform="" style="fill: rgb(255, 255, 255);">
<path d="M250,38.5c116.813,0,211.5,94.693,211.5,211.5c0,116.813-94.687,211.5-211.5,211.5c-116.807,0-211.5-94.687-211.5-211.5
	C38.5,133.193,133.193,38.5,250,38.5z"/>
</g></g><g transform="translate(245,525) scale(0.07,0.07)"><g transform="" style="fill: rgb(255, 255, 255);">
<path d="M461.5,288.5c0-42.907,0-123.188,0-171.55c0-23.857,0-39.95,0-39.95V59.5V30V0h-423v30v29.5V77c0,0,0,16.216,0,39.95
	c0,51.332,0,137.84,0,171.55C38.5,405.301,133.2,500,250,500C366.809,500,461.5,405.301,461.5,288.5z"/>
</g></g><g transform="translate(280,525) scale(0.07,0.07)"><g transform="" style="fill: rgb(255, 255, 255);">
<path d="M38.5,211.5c0,42.907,0,123.188,0,171.55c0,23.857,0,39.95,0,39.95v17.5V470v30h423v-30v-29.5V423c0,0,0-16.216,0-39.95
	c0-51.332,0-137.84,0-171.55C461.5,94.699,366.8,0,250,0C133.191,0,38.5,94.699,38.5,211.5z"/>
</g></g><g transform="translate(315,525) scale(0.07,0.07)"><g transform="" style="fill: rgb(255, 255, 255);">
<path d="M250,38.5c116.813,0,211.5,94.693,211.5,211.5c0,116.813-94.687,211.5-211.5,211.5c-116.807,0-211.5-94.687-211.5-211.5
	C38.5,133.193,133.193,38.5,250,38.5z"/>
</g></g><g transform="translate(385,525) scale(0.07,0.07)"><g transform="" style="fill: rgb(255, 255, 255);">
<polygon points="38.5,250 38.5,500 461.5,500 461.5,250 461.5,0 38.5,0 "/>
</g></g><g transform="translate(525,525) scale(0.07,0.07)"><g transform="" style="fill: rgb(255, 255, 255);">
<path d="M250,38.5c116.813,0,211.5,94.693,211.5,211.5c0,116.813-94.687,211.5-211.5,211.5c-116.807,0-211.5-94.687-211.5-211.5
	C38.5,133.193,133.193,38.5,250,38.5z"/>
</g></g><g transform="translate(630,525) scale(0.07,0.07)"><g transform="" style="fill: rgb(255, 255, 255);">
<path d="M250,38.5c116.813,0,211.5,94.693,211.5,211.5c0,116.813-94.687,211.5-211.5,211.5c-116.807,0-211.5-94.687-211.5-211.5
	C38.5,133.193,133.193,38.5,250,38.5z"/>
</g></g><g transform="translate(665,525) scale(0.07,0.07)"><g transform="" style="fill: rgb(255, 255, 255);">
<polygon points="38.5,250 38.5,500 461.5,500 461.5,250 461.5,0 38.5,0 "/>
</g></g><g transform="translate(805,525) scale(0.07,0.07)"><g transform="" style="fill: rgb(255, 255, 255);">
<path d="M250,38.5c116.813,0,211.5,94.693,211.5,211.5c0,116.813-94.687,211.5-211.5,211.5c-116.807,0-211.5-94.687-211.5-211.5
	C38.5,133.193,133.193,38.5,250,38.5z"/>
</g></g><g transform="translate(840,525) scale(0.07,0.07)"><g transform="" style="fill: rgb(255, 255, 255);">
<path d="M461.5,288.5c0-42.907,0-123.188,0-171.55c0-23.857,0-39.95,0-39.95V59.5V30V0h-423v30v29.5V77c0,0,0,16.216,0,39.95
	c0,51.332,0,137.84,0,171.55C38.5,405.301,133.2,500,250,500C366.809,500,461.5,405.301,461.5,288.5z"/>
</g></g><g transform="translate(910,525) scale(0.07,0.07)"><g transform="" style="fill: rgb(255, 255, 255);">
<path d="M461.5,288.5c0-42.907,0-123.188,0-171.55c0-23.857,0-39.95,0-39.95V59.5V30V0h-423v30v29.5V77c0,0,0,16.216,0,39.95
	c0,51.332,0,137.84,0,171.55C38.5,405.301,133.2,500,250,500C366.809,500,461.5,405.301,461.5,288.5z"/>
</g></g><g transform="translate(980,525) scale(0.07,0.07)"><g transform="" style="fill: rgb(255, 255, 255);">
<path d="M461.5,288.5c0-42.907,0-123.188,0-171.55c0-23.857,0-39.95,0-39.95V59.5V30V0h-423v30v29.5V77c0,0,0,16.216,0,39.95
	c0,51.332,0,137.84,0,171.55C38.5,405.301,133.2,500,250,500C366.809,500,461.5,405.301,461.5,288.5z"/>
</g></g><g transform="translate(0,560) scale(0.07,0.07)"><g transform="" style="fill: rgb(255, 255, 255);">
<path d="M38.5,211.5c0,42.907,0,123.188,0,171.55c0,23.857,0,39.95,0,39.95v17.5V470v30h423v-30v-29.5V423c0,0,0-16.216,0-39.95
	c0-51.332,0-137.84,0-171.55C461.5,94.699,366.8,0,250,0C133.191,0,38.5,94.699,38.5,211.5z"/>
</g></g><g transform="translate(35,560) scale(0.07,0.07)"><g transform="" style="fill: rgb(255, 255, 255);">
<path d="M250,38.5c116.813,0,211.5,94.693,211.5,211.5c0,116.813-94.687,211.5-211.5,211.5c-116.807,0-211.5-94.687-211.5-211.5
	C38.5,133.193,133.193,38.5,250,38.5z"/>
</g></g><g transform="translate(210,560) scale(0.07,0.07)"><g transform="" style="fill: rgb(255, 255, 255);">
<path d="M250,38.5c116.813,0,211.5,94.693,211.5,211.5c0,116.813-94.687,211.5-211.5,211.5c-116.807,0-211.5-94.687-211.5-211.5
	C38.5,133.193,133.193,38.5,250,38.5z"/>
</g></g><g transform="translate(280,560) scale(0.07,0.07)"><g transform="" style="fill: rgb(255, 255, 255);">
<path d="M461.5,288.5c0-42.907,0-123.188,0-171.55c0-23.857,0-39.95,0-39.95V59.5V30V0h-423v30v29.5V77c0,0,0,16.216,0,39.95
	c0,51.332,0,137.84,0,171.55C38.5,405.301,133.2,500,250,500C366.809,500,461.5,405.301,461.5,288.5z"/>
</g></g><g transform="translate(350,560) scale(0.07,0.07)"><g transform="" style="fill: rgb(255, 255, 255);">
<path d="M250,38.5c116.813,0,211.5,94.693,211.5,211.5c0,116.813-94.687,211.5-211.5,211.5c-116.807,0-211.5-94.687-211.5-211.5
	C38.5,133.193,133.193,38.5,250,38.5z"/>
</g></g><g transform="translate(385,560) scale(0.07,0.07)"><g transform="" style="fill: rgb(255, 255, 255);">
<polygon points="38.5,250 38.5,500 461.5,500 461.5,250 461.5,0 38.5,0 "/>
</g></g><g transform="translate(420,560) scale(0.07,0.07)"><g transform="" style="fill: rgb(255, 255, 255);">
<path d="M250,38.5c116.813,0,211.5,94.693,211.5,211.5c0,116.813-94.687,211.5-211.5,211.5c-116.807,0-211.5-94.687-211.5-211.5
	C38.5,133.193,133.193,38.5,250,38.5z"/>
</g></g><g transform="translate(490,560) scale(0.07,0.07)"><g transform="" style="fill: rgb(255, 255, 255);">
<path d="M38.5,211.5c0,42.907,0,123.188,0,171.55c0,23.857,0,39.95,0,39.95v17.5V470v30h423v-30v-29.5V423c0,0,0-16.216,0-39.95
	c0-51.332,0-137.84,0-171.55C461.5,94.699,366.8,0,250,0C133.191,0,38.5,94.699,38.5,211.5z"/>
</g></g><g transform="translate(560,560) scale(0.07,0.07)"><g transform="" style="fill: rgb(255, 255, 255);">
<path d="M38.5,211.5c0,42.907,0,123.188,0,171.55c0,23.857,0,39.95,0,39.95v17.5V470v30h423v-30v-29.5V423c0,0,0-16.216,0-39.95
	c0-51.332,0-137.84,0-171.55C461.5,94.699,366.8,0,250,0C133.191,0,38.5,94.699,38.5,211.5z"/>
</g></g><g transform="translate(665,560) scale(0.07,0.07)"><g transform="" style="fill: rgb(255, 255, 255);">
<polygon points="38.5,250 38.5,500 461.5,500 461.5,250 461.5,0 38.5,0 "/>
</g></g><g transform="translate(700,560) scale(0.07,0.07)"><g transform="" style="fill: rgb(255, 255, 255);">
<path d="M250,38.5c116.813,0,211.5,94.693,211.5,211.5c0,116.813-94.687,211.5-211.5,211.5c-116.807,0-211.5-94.687-211.5-211.5
	C38.5,133.193,133.193,38.5,250,38.5z"/>
</g></g><g transform="translate(735,560) scale(0.07,0.07)"><g transform="" style="fill: rgb(255, 255, 255);">
<path d="M250,38.5c116.813,0,211.5,94.693,211.5,211.5c0,116.813-94.687,211.5-211.5,211.5c-116.807,0-211.5-94.687-211.5-211.5
	C38.5,133.193,133.193,38.5,250,38.5z"/>
</g></g><g transform="translate(875,560) scale(0.07,0.07)"><g transform="" style="fill: rgb(255, 255, 255);">
<path d="M250,38.5c116.813,0,211.5,94.693,211.5,211.5c0,116.813-94.687,211.5-211.5,211.5c-116.807,0-211.5-94.687-211.5-211.5
	C38.5,133.193,133.193,38.5,250,38.5z"/>
</g></g><g transform="translate(0,595) scale(0.07,0.07)"><g transform="" style="fill: rgb(255, 255, 255);">
<polygon points="38.5,250 38.5,500 461.5,500 461.5,250 461.5,0 38.5,0 "/>
</g></g><g transform="translate(70,595) scale(0.07,0.07)"><g transform="" style="fill: rgb(255, 255, 255);">
<path d="M38.5,211.5c0,42.907,0,123.188,0,171.55c0,23.857,0,39.95,0,39.95v17.5V470v30h423v-30v-29.5V423c0,0,0-16.216,0-39.95
	c0-51.332,0-137.84,0-171.55C461.5,94.699,366.8,0,250,0C133.191,0,38.5,94.699,38.5,211.5z"/>
</g></g><g transform="translate(105,595) scale(0.07,0.07)"><g transform="" style="fill: rgb(255, 255, 255);">
<path d="M250,38.5c116.813,0,211.5,94.693,211.5,211.5c0,116.813-94.687,211.5-211.5,211.5c-116.807,0-211.5-94.687-211.5-211.5
	C38.5,133.193,133.193,38.5,250,38.5z"/>
</g></g><g transform="translate(175,595) scale(0.07,0.07)"><g transform="" style="fill: rgb(255, 255, 255);">
<path d="M250,38.5c116.813,0,211.5,94.693,211.5,211.5c0,116.813-94.687,211.5-211.5,211.5c-116.807,0-211.5-94.687-211.5-211.5
	C38.5,133.193,133.193,38.5,250,38.5z"/>
</g></g><g transform="translate(245,595) scale(0.07,0.07)"><g transform="" style="fill: rgb(255, 255, 255);">
<path d="M250,38.5c116.813,0,211.5,94.693,211.5,211.5c0,116.813-94.687,211.5-211.5,211.5c-116.807,0-211.5-94.687-211.5-211.5
	C38.5,133.193,133.193,38.5,250,38.5z"/>
</g></g><g transform="translate(315,595) scale(0.07,0.07)"><g transform="" style="fill: rgb(255, 255, 255);">
<path d="M250,38.5c116.813,0,211.5,94.693,211.5,211.5c0,116.813-94.687,211.5-211.5,211.5c-116.807,0-211.5-94.687-211.5-211.5
	C38.5,133.193,133.193,38.5,250,38.5z"/>
</g></g><g transform="translate(385,595) scale(0.07,0.07)"><g transform="" style="fill: rgb(255, 255, 255);">
<path d="M461.5,288.5c0-42.907,0-123.188,0-171.55c0-23.857,0-39.95,0-39.95V59.5V30V0h-423v30v29.5V77c0,0,0,16.216,0,39.95
	c0,51.332,0,137.84,0,171.55C38.5,405.301,133.2,500,250,500C366.809,500,461.5,405.301,461.5,288.5z"/>
</g></g><g transform="translate(455,595) scale(0.07,0.07)"><g transform="" style="fill: rgb(255, 255, 255);">
<path d="M250,38.5c116.813,0,211.5,94.693,211.5,211.5c0,116.813-94.687,211.5-211.5,211.5c-116.807,0-211.5-94.687-211.5-211.5
	C38.5,133.193,133.193,38.5,250,38.5z"/>
</g></g><g transform="translate(490,595) scale(0.07,0.07)"><g transform="" style="fill: rgb(255, 255, 255);">
<path d="M461.5,288.5c0-42.907,0-123.188,0-171.55c0-23.857,0-39.95,0-39.95V59.5V30V0h-423v30v29.5V77c0,0,0,16.216,0,39.95
	c0,51.332,0,137.84,0,171.55C38.5,405.301,133.2,500,250,500C366.809,500,461.5,405.301,461.5,288.5z"/>
</g></g><g transform="translate(560,595) scale(0.07,0.07)"><g transform="" style="fill: rgb(255, 255, 255);">
<path d="M461.5,288.5c0-42.907,0-123.188,0-171.55c0-23.857,0-39.95,0-39.95V59.5V30V0h-423v30v29.5V77c0,0,0,16.216,0,39.95
	c0,51.332,0,137.84,0,171.55C38.5,405.301,133.2,500,250,500C366.809,500,461.5,405.301,461.5,288.5z"/>
</g></g><g transform="translate(595,595) scale(0.07,0.07)"><g transform="" style="fill: rgb(255, 255, 255);">
<path d="M38.5,211.5c0,42.907,0,123.188,0,171.55c0,23.857,0,39.95,0,39.95v17.5V470v30h423v-30v-29.5V423c0,0,0-16.216,0-39.95
	c0-51.332,0-137.84,0-171.55C461.5,94.699,366.8,0,250,0C133.191,0,38.5,94.699,38.5,211.5z"/>
</g></g><g transform="translate(630,595) scale(0.07,0.07)"><g transform="" style="fill: rgb(255, 255, 255);">
<path d="M250,38.5c116.813,0,211.5,94.693,211.5,211.5c0,116.813-94.687,211.5-211.5,211.5c-116.807,0-211.5-94.687-211.5-211.5
	C38.5,133.193,133.193,38.5,250,38.5z"/>
</g></g><g transform="translate(665,595) scale(0.07,0.07)"><g transform="" style="fill: rgb(255, 255, 255);">
<polygon points="38.5,250 38.5,500 461.5,500 461.5,250 461.5,0 38.5,0 "/>
</g></g><g transform="translate(840,595) scale(0.07,0.07)"><g transform="" style="fill: rgb(255, 255, 255);">
<path d="M38.5,211.5c0,42.907,0,123.188,0,171.55c0,23.857,0,39.95,0,39.95v17.5V470v30h423v-30v-29.5V423c0,0,0-16.216,0-39.95
	c0-51.332,0-137.84,0-171.55C461.5,94.699,366.8,0,250,0C133.191,0,38.5,94.699,38.5,211.5z"/>
</g></g><g transform="translate(910,595) scale(0.07,0.07)"><g transform="" style="fill: rgb(255, 255, 255);">
<path d="M250,38.5c116.813,0,211.5,94.693,211.5,211.5c0,116.813-94.687,211.5-211.5,211.5c-116.807,0-211.5-94.687-211.5-211.5
	C38.5,133.193,133.193,38.5,250,38.5z"/>
</g></g><g transform="translate(945,595) scale(0.07,0.07)"><g transform="" style="fill: rgb(255, 255, 255);">
<path d="M250,38.5c116.813,0,211.5,94.693,211.5,211.5c0,116.813-94.687,211.5-211.5,211.5c-116.807,0-211.5-94.687-211.5-211.5
	C38.5,133.193,133.193,38.5,250,38.5z"/>
</g></g><g transform="translate(0,630) scale(0.07,0.07)"><g transform="" style="fill: rgb(255, 255, 255);">
<polygon points="38.5,250 38.5,500 461.5,500 461.5,250 461.5,0 38.5,0 "/>
</g></g><g transform="translate(35,630) scale(0.07,0.07)"><g transform="" style="fill: rgb(255, 255, 255);">
<path d="M38.5,211.5c0,42.907,0,123.188,0,171.55c0,23.857,0,39.95,0,39.95v17.5V470v30h423v-30v-29.5V423c0,0,0-16.216,0-39.95
	c0-51.332,0-137.84,0-171.55C461.5,94.699,366.8,0,250,0C133.191,0,38.5,94.699,38.5,211.5z"/>
</g></g><g transform="translate(70,630) scale(0.07,0.07)"><g transform="" style="fill: rgb(255, 255, 255);">
<polygon points="38.5,250 38.5,500 461.5,500 461.5,250 461.5,0 38.5,0 "/>
</g></g><g transform="translate(140,630) scale(0.07,0.07)"><g transform="" style="fill: rgb(255, 255, 255);">
<path d="M38.5,211.5c0,42.907,0,123.188,0,171.55c0,23.857,0,39.95,0,39.95v17.5V470v30h423v-30v-29.5V423c0,0,0-16.216,0-39.95
	c0-51.332,0-137.84,0-171.55C461.5,94.699,366.8,0,250,0C133.191,0,38.5,94.699,38.5,211.5z"/>
</g></g><g transform="translate(210,630) scale(0.07,0.07)"><g transform="" style="fill: rgb(255, 255, 255);">
<path d="M250,38.5c116.813,0,211.5,94.693,211.5,211.5c0,116.813-94.687,211.5-211.5,211.5c-116.807,0-211.5-94.687-211.5-211.5
	C38.5,133.193,133.193,38.5,250,38.5z"/>
</g></g><g transform="translate(350,630) scale(0.07,0.07)"><g transform="" style="fill: rgb(255, 255, 255);">
<path d="M250,38.5c116.813,0,211.5,94.693,211.5,211.5c0,116.813-94.687,211.5-211.5,211.5c-116.807,0-211.5-94.687-211.5-211.5
	C38.5,133.193,133.193,38.5,250,38.5z"/>
</g></g><g transform="translate(420,630) scale(0.07,0.07)"><g transform="" style="fill: rgb(255, 255, 255);">
<path d="M250,38.5c116.813,0,211.5,94.693,211.5,211.5c0,116.813-94.687,211.5-211.5,211.5c-116.807,0-211.5-94.687-211.5-211.5
	C38.5,133.193,133.193,38.5,250,38.5z"/>
</g></g><g transform="translate(525,630) scale(0.07,0.07)"><g transform="" style="fill: rgb(255, 255, 255);">
<path d="M250,38.5c116.813,0,211.5,94.693,211.5,211.5c0,116.813-94.687,211.5-211.5,211.5c-116.807,0-211.5-94.687-211.5-211.5
	C38.5,133.193,133.193,38.5,250,38.5z"/>
</g></g><g transform="translate(595,630) scale(0.07,0.07)"><g transform="" style="fill: rgb(255, 255, 255);">
<path d="M461.5,288.5c0-42.907,0-123.188,0-171.55c0-23.857,0-39.95,0-39.95V59.5V30V0h-423v30v29.5V77c0,0,0,16.216,0,39.95
	c0,51.332,0,137.84,0,171.55C38.5,405.301,133.2,500,250,500C366.809,500,461.5,405.301,461.5,288.5z"/>
</g></g><g transform="translate(665,630) scale(0.07,0.07)"><g transform="" style="fill: rgb(255, 255, 255);">
<polygon points="38.5,250 38.5,500 461.5,500 461.5,250 461.5,0 38.5,0 "/>
</g></g><g transform="translate(840,630) scale(0.07,0.07)"><g transform="" style="fill: rgb(255, 255, 255);">
<path d="M461.5,288.5c0-42.907,0-123.188,0-171.55c0-23.857,0-39.95,0-39.95V59.5V30V0h-423v30v29.5V77c0,0,0,16.216,0,39.95
	c0,51.332,0,137.84,0,171.55C38.5,405.301,133.2,500,250,500C366.809,500,461.5,405.301,461.5,288.5z"/>
</g></g><g transform="translate(875,630) scale(0.07,0.07)"><g transform="" style="fill: rgb(255, 255, 255);">
<path d="M38.5,211.5c0,42.907,0,123.188,0,171.55c0,23.857,0,39.95,0,39.95v17.5V470v30h423v-30v-29.5V423c0,0,0-16.216,0-39.95
	c0-51.332,0-137.84,0-171.55C461.5,94.699,366.8,0,250,0C133.191,0,38.5,94.699,38.5,211.5z"/>
</g></g><g transform="translate(980,630) scale(0.07,0.07)"><g transform="" style="fill: rgb(255, 255, 255);">
<path d="M250,38.5c116.813,0,211.5,94.693,211.5,211.5c0,116.813-94.687,211.5-211.5,211.5c-116.807,0-211.5-94.687-211.5-211.5
	C38.5,133.193,133.193,38.5,250,38.5z"/>
</g></g><g transform="translate(0,665) scale(0.07,0.07)"><g transform="" style="fill: rgb(255, 255, 255);">
<polygon points="38.5,250 38.5,500 461.5,500 461.5,250 461.5,0 38.5,0 "/>
</g></g><g transform="translate(35,665) scale(0.07,0.07)"><g transform="" style="fill: rgb(255, 255, 255);">
<polygon points="38.5,250 38.5,500 461.5,500 461.5,250 461.5,0 38.5,0 "/>
</g></g><g transform="translate(70,665) scale(0.07,0.07)"><g transform="" style="fill: rgb(255, 255, 255);">
<polygon points="38.5,250 38.5,500 461.5,500 461.5,250 461.5,0 38.5,0 "/>
</g></g><g transform="translate(105,665) scale(0.07,0.07)"><g transform="" style="fill: rgb(255, 255, 255);">
<path d="M38.5,211.5c0,42.907,0,123.188,0,171.55c0,23.857,0,39.95,0,39.95v17.5V470v30h423v-30v-29.5V423c0,0,0-16.216,0-39.95
	c0-51.332,0-137.84,0-171.55C461.5,94.699,366.8,0,250,0C133.191,0,38.5,94.699,38.5,211.5z"/>
</g></g><g transform="translate(140,665) scale(0.07,0.07)"><g transform="" style="fill: rgb(255, 255, 255);">
<path d="M461.5,288.5c0-42.907,0-123.188,0-171.55c0-23.857,0-39.95,0-39.95V59.5V30V0h-423v30v29.5V77c0,0,0,16.216,0,39.95
	c0,51.332,0,137.84,0,171.55C38.5,405.301,133.2,500,250,500C366.809,500,461.5,405.301,461.5,288.5z"/>
</g></g><g transform="translate(245,665) scale(0.07,0.07)"><g transform="" style="fill: rgb(255, 255, 255);">
<path d="M38.5,211.5c0,42.907,0,123.188,0,171.55c0,23.857,0,39.95,0,39.95v17.5V470v30h423v-30v-29.5V423c0,0,0-16.216,0-39.95
	c0-51.332,0-137.84,0-171.55C461.5,94.699,366.8,0,250,0C133.191,0,38.5,94.699,38.5,211.5z"/>
</g></g><g transform="translate(280,665) scale(0.07,0.07)"><g transform="" style="fill: rgb(255, 255, 255);">
<path d="M250,38.5c116.813,0,211.5,94.693,211.5,211.5c0,116.813-94.687,211.5-211.5,211.5c-116.807,0-211.5-94.687-211.5-211.5
	C38.5,133.193,133.193,38.5,250,38.5z"/>
</g></g><g transform="translate(315,665) scale(0.07,0.07)"><g transform="" style="fill: rgb(255, 255, 255);">
<path d="M38.5,211.5c0,42.907,0,123.188,0,171.55c0,23.857,0,39.95,0,39.95v17.5V470v30h423v-30v-29.5V423c0,0,0-16.216,0-39.95
	c0-51.332,0-137.84,0-171.55C461.5,94.699,366.8,0,250,0C133.191,0,38.5,94.699,38.5,211.5z"/>
</g></g><g transform="translate(490,665) scale(0.07,0.07)"><g transform="" style="fill: rgb(255, 255, 255);">
<path d="M38.5,211.5c0,42.907,0,123.188,0,171.55c0,23.857,0,39.95,0,39.95v17.5V470v30h423v-30v-29.5V423c0,0,0-16.216,0-39.95
	c0-51.332,0-137.84,0-171.55C461.5,94.699,366.8,0,250,0C133.191,0,38.5,94.699,38.5,211.5z"/>
</g></g><g transform="translate(665,665) scale(0.07,0.07)"><g transform="" style="fill: rgb(255, 255, 255);">
<path d="M461.5,288.5c0-42.907,0-123.188,0-171.55c0-23.857,0-39.95,0-39.95V59.5V30V0h-423v30v29.5V77c0,0,0,16.216,0,39.95
	c0,51.332,0,137.84,0,171.55C38.5,405.301,133.2,500,250,500C366.809,500,461.5,405.301,461.5,288.5z"/>
</g></g><g transform="translate(770,665) scale(0.07,0.07)"><g transform="" style="fill: rgb(255, 255, 255);">
<path d="M38.5,211.5c0,42.907,0,123.188,0,171.55c0,23.857,0,39.95,0,39.95v17.5V470v30h423v-30v-29.5V423c0,0,0-16.216,0-39.95
	c0-51.332,0-137.84,0-171.55C461.5,94.699,366.8,0,250,0C133.191,0,38.5,94.699,38.5,211.5z"/>
</g></g><g transform="translate(875,665) scale(0.07,0.07)"><g transform="" style="fill: rgb(255, 255, 255);">
<polygon points="38.5,250 38.5,500 461.5,500 461.5,250 461.5,0 38.5,0 "/>
</g></g><g transform="translate(910,665) scale(0.07,0.07)"><g transform="" style="fill: rgb(255, 255, 255);">
<path d="M38.5,211.5c0,42.907,0,123.188,0,171.55c0,23.857,0,39.95,0,39.95v17.5V470v30h423v-30v-29.5V423c0,0,0-16.216,0-39.95
	c0-51.332,0-137.84,0-171.55C461.5,94.699,366.8,0,250,0C133.191,0,38.5,94.699,38.5,211.5z"/>
</g></g><g transform="translate(0,700) scale(0.07,0.07)"><g transform="" style="fill: rgb(255, 255, 255);">
<path d="M461.5,288.5c0-42.907,0-123.188,0-171.55c0-23.857,0-39.95,0-39.95V59.5V30V0h-423v30v29.5V77c0,0,0,16.216,0,39.95
	c0,51.332,0,137.84,0,171.55C38.5,405.301,133.2,500,250,500C366.809,500,461.5,405.301,461.5,288.5z"/>
</g></g><g transform="translate(35,700) scale(0.07,0.07)"><g transform="" style="fill: rgb(255, 255, 255);">
<path d="M461.5,288.5c0-42.907,0-123.188,0-171.55c0-23.857,0-39.95,0-39.95V59.5V30V0h-423v30v29.5V77c0,0,0,16.216,0,39.95
	c0,51.332,0,137.84,0,171.55C38.5,405.301,133.2,500,250,500C366.809,500,461.5,405.301,461.5,288.5z"/>
</g></g><g transform="translate(70,700) scale(0.07,0.07)"><g transform="" style="fill: rgb(255, 255, 255);">
<path d="M461.5,288.5c0-42.907,0-123.188,0-171.55c0-23.857,0-39.95,0-39.95V59.5V30V0h-423v30v29.5V77c0,0,0,16.216,0,39.95
	c0,51.332,0,137.84,0,171.55C38.5,405.301,133.2,500,250,500C366.809,500,461.5,405.301,461.5,288.5z"/>
</g></g><g transform="translate(105,700) scale(0.07,0.07)"><g transform="" style="fill: rgb(255, 255, 255);">
<path d="M461.5,288.5c0-42.907,0-123.188,0-171.55c0-23.857,0-39.95,0-39.95V59.5V30V0h-423v30v29.5V77c0,0,0,16.216,0,39.95
	c0,51.332,0,137.84,0,171.55C38.5,405.301,133.2,500,250,500C366.809,500,461.5,405.301,461.5,288.5z"/>
</g></g><g transform="translate(175,700) scale(0.07,0.07)"><g transform="" style="fill: rgb(255, 255, 255);">
<path d="M250,38.5c116.813,0,211.5,94.693,211.5,211.5c0,116.813-94.687,211.5-211.5,211.5c-116.807,0-211.5-94.687-211.5-211.5
	C38.5,133.193,133.193,38.5,250,38.5z"/>
</g></g><g transform="translate(210,700) scale(0.07,0.07)"><g transform="" style="fill: rgb(255, 255, 255);">
<path d="M250,38.5c116.813,0,211.5,94.693,211.5,211.5c0,116.813-94.687,211.5-211.5,211.5c-116.807,0-211.5-94.687-211.5-211.5
	C38.5,133.193,133.193,38.5,250,38.5z"/>
</g></g><g transform="translate(245,700) scale(0.07,0.07)"><g transform="" style="fill: rgb(255, 255, 255);">
<path d="M461.5,288.5c0-42.907,0-123.188,0-171.55c0-23.857,0-39.95,0-39.95V59.5V30V0h-423v30v29.5V77c0,0,0,16.216,0,39.95
	c0,51.332,0,137.84,0,171.55C38.5,405.301,133.2,500,250,500C366.809,500,461.5,405.301,461.5,288.5z"/>
</g></g><g transform="translate(315,700) scale(0.07,0.07)"><g transform="" style="fill: rgb(255, 255, 255);">
<polygon points="38.5,250 38.5,500 461.5,500 461.5,250 461.5,0 38.5,0 "/>
</g></g><g transform="translate(385,700) scale(0.07,0.07)"><g transform="" style="fill: rgb(255, 255, 255);">
<path d="M38.5,211.5c0,42.907,0,123.188,0,171.55c0,23.857,0,39.95,0,39.95v17.5V470v30h423v-30v-29.5V423c0,0,0-16.216,0-39.95
	c0-51.332,0-137.84,0-171.55C461.5,94.699,366.8,0,250,0C133.191,0,38.5,94.699,38.5,211.5z"/>
</g></g><g transform="translate(420,700) scale(0.07,0.07)"><g transform="" style="fill: rgb(255, 255, 255);">
<path d="M38.5,211.5c0,42.907,0,123.188,0,171.55c0,23.857,0,39.95,0,39.95v17.5V470v30h423v-30v-29.5V423c0,0,0-16.216,0-39.95
	c0-51.332,0-137.84,0-171.55C461.5,94.699,366.8,0,250,0C133.191,0,38.5,94.699,38.5,211.5z"/>
</g></g><g transform="translate(455,700) scale(0.07,0.07)"><g transform="" style="fill: rgb(255, 255, 255);">
<path d="M250,38.5c116.813,0,211.5,94.693,211.5,211.5c0,116.813-94.687,211.5-211.5,211.5c-116.807,0-211.5-94.687-211.5-211.5
	C38.5,133.193,133.193,38.5,250,38.5z"/>
</g></g><g transform="translate(490,700) scale(0.07,0.07)"><g transform="" style="fill: rgb(255, 255, 255);">
<polygon points="38.5,250 38.5,500 461.5,500 461.5,250 461.5,0 38.5,0 "/>
</g></g><g transform="translate(525,700) scale(0.07,0.07)"><g transform="" style="fill: rgb(255, 255, 255);">
<path d="M250,38.5c116.813,0,211.5,94.693,211.5,211.5c0,116.813-94.687,211.5-211.5,211.5c-116.807,0-211.5-94.687-211.5-211.5
	C38.5,133.193,133.193,38.5,250,38.5z"/>
</g></g><g transform="translate(560,700) scale(0.07,0.07)"><g transform="" style="fill: rgb(255, 255, 255);">
<path d="M250,38.5c116.813,0,211.5,94.693,211.5,211.5c0,116.813-94.687,211.5-211.5,211.5c-116.807,0-211.5-94.687-211.5-211.5
	C38.5,133.193,133.193,38.5,250,38.5z"/>
</g></g><g transform="translate(595,700) scale(0.07,0.07)"><g transform="" style="fill: rgb(255, 255, 255);">
<path d="M250,38.5c116.813,0,211.5,94.693,211.5,211.5c0,116.813-94.687,211.5-211.5,211.5c-116.807,0-211.5-94.687-211.5-211.5
	C38.5,133.193,133.193,38.5,250,38.5z"/>
</g></g><g transform="translate(700,700) scale(0.07,0.07)"><g transform="" style="fill: rgb(255, 255, 255);">
<path d="M38.5,211.5c0,42.907,0,123.188,0,171.55c0,23.857,0,39.95,0,39.95v17.5V470v30h423v-30v-29.5V423c0,0,0-16.216,0-39.95
	c0-51.332,0-137.84,0-171.55C461.5,94.699,366.8,0,250,0C133.191,0,38.5,94.699,38.5,211.5z"/>
</g></g><g transform="translate(735,700) scale(0.07,0.07)"><g transform="" style="fill: rgb(255, 255, 255);">
<path d="M250,38.5c116.813,0,211.5,94.693,211.5,211.5c0,116.813-94.687,211.5-211.5,211.5c-116.807,0-211.5-94.687-211.5-211.5
	C38.5,133.193,133.193,38.5,250,38.5z"/>
</g></g><g transform="translate(770,700) scale(0.07,0.07)"><g transform="" style="fill: rgb(255, 255, 255);">
<path d="M461.5,288.5c0-42.907,0-123.188,0-171.55c0-23.857,0-39.95,0-39.95V59.5V30V0h-423v30v29.5V77c0,0,0,16.216,0,39.95
	c0,51.332,0,137.84,0,171.55C38.5,405.301,133.2,500,250,500C366.809,500,461.5,405.301,461.5,288.5z"/>
</g></g><g transform="translate(805,700) scale(0.07,0.07)"><g transform="" style="fill: rgb(255, 255, 255);">
<path d="M250,38.5c116.813,0,211.5,94.693,211.5,211.5c0,116.813-94.687,211.5-211.5,211.5c-116.807,0-211.5-94.687-211.5-211.5
	C38.5,133.193,133.193,38.5,250,38.5z"/>
</g></g><g transform="translate(840,700) scale(0.07,0.07)"><g transform="" style="fill: rgb(255, 255, 255);">
<path d="M38.5,211.5c0,42.907,0,123.188,0,171.55c0,23.857,0,39.95,0,39.95v17.5V470v30h423v-30v-29.5V423c0,0,0-16.216,0-39.95
	c0-51.332,0-137.84,0-171.55C461.5,94.699,366.8,0,250,0C133.191,0,38.5,94.699,38.5,211.5z"/>
</g></g><g transform="translate(875,700) scale(0.07,0.07)"><g transform="" style="fill: rgb(255, 255, 255);">
<polygon points="38.5,250 38.5,500 461.5,500 461.5,250 461.5,0 38.5,0 "/>
</g></g><g transform="translate(910,700) scale(0.07,0.07)"><g transform="" style="fill: rgb(255, 255, 255);">
<path d="M461.5,288.5c0-42.907,0-123.188,0-171.55c0-23.857,0-39.95,0-39.95V59.5V30V0h-423v30v29.5V77c0,0,0,16.216,0,39.95
	c0,51.332,0,137.84,0,171.55C38.5,405.301,133.2,500,250,500C366.809,500,461.5,405.301,461.5,288.5z"/>
</g></g><g transform="translate(945,700) scale(0.07,0.07)"><g transform="" style="fill: rgb(255, 255, 255);">
<path d="M250,38.5c116.813,0,211.5,94.693,211.5,211.5c0,116.813-94.687,211.5-211.5,211.5c-116.807,0-211.5-94.687-211.5-211.5
	C38.5,133.193,133.193,38.5,250,38.5z"/>
</g></g><g transform="translate(280,735) scale(0.07,0.07)"><g transform="" style="fill: rgb(255, 255, 255);">
<path d="M38.5,211.5c0,42.907,0,123.188,0,171.55c0,23.857,0,39.95,0,39.95v17.5V470v30h423v-30v-29.5V423c0,0,0-16.216,0-39.95
	c0-51.332,0-137.84,0-171.55C461.5,94.699,366.8,0,250,0C133.191,0,38.5,94.699,38.5,211.5z"/>
</g></g><g transform="translate(315,735) scale(0.07,0.07)"><g transform="" style="fill: rgb(255, 255, 255);">
<polygon points="38.5,250 38.5,500 461.5,500 461.5,250 461.5,0 38.5,0 "/>
</g></g><g transform="translate(385,735) scale(0.07,0.07)"><g transform="" style="fill: rgb(255, 255, 255);">
<polygon points="38.5,250 38.5,500 461.5,500 461.5,250 461.5,0 38.5,0 "/>
</g></g><g transform="translate(420,735) scale(0.07,0.07)"><g transform="" style="fill: rgb(255, 255, 255);">
<path d="M461.5,288.5c0-42.907,0-123.188,0-171.55c0-23.857,0-39.95,0-39.95V59.5V30V0h-423v30v29.5V77c0,0,0,16.216,0,39.95
	c0,51.332,0,137.84,0,171.55C38.5,405.301,133.2,500,250,500C366.809,500,461.5,405.301,461.5,288.5z"/>
</g></g><g transform="translate(490,735) scale(0.07,0.07)"><g transform="" style="fill: rgb(255, 255, 255);">
<polygon points="38.5,250 38.5,500 461.5,500 461.5,250 461.5,0 38.5,0 "/>
</g></g><g transform="translate(700,735) scale(0.07,0.07)"><g transform="" style="fill: rgb(255, 255, 255);">
<polygon points="38.5,250 38.5,500 461.5,500 461.5,250 461.5,0 38.5,0 "/>
</g></g><g transform="translate(840,735) scale(0.07,0.07)"><g transform="" style="fill: rgb(255, 255, 255);">
<polygon points="38.5,250 38.5,500 461.5,500 461.5,250 461.5,0 38.5,0 "/>
</g></g><g transform="translate(875,735) scale(0.07,0.07)"><g transform="" style="fill: rgb(255, 255, 255);">
<polygon points="38.5,250 38.5,500 461.5,500 461.5,250 461.5,0 38.5,0 "/>
</g></g><g transform="translate(280,770) scale(0.07,0.07)"><g transform="" style="fill: rgb(255, 255, 255);">
<polygon points="38.5,250 38.5,500 461.5,500 461.5,250 461.5,0 38.5,0 "/>
</g></g><g transform="translate(315,770) scale(0.07,0.07)"><g transform="" style="fill: rgb(255, 255, 255);">
<path d="M461.5,288.5c0-42.907,0-123.188,0-171.55c0-23.857,0-39.95,0-39.95V59.5V30V0h-423v30v29.5V77c0,0,0,16.216,0,39.95
	c0,51.332,0,137.84,0,171.55C38.5,405.301,133.2,500,250,500C366.809,500,461.5,405.301,461.5,288.5z"/>
</g></g><g transform="translate(350,770) scale(0.07,0.07)"><g transform="" style="fill: rgb(255, 255, 255);">
<path d="M38.5,211.5c0,42.907,0,123.188,0,171.55c0,23.857,0,39.95,0,39.95v17.5V470v30h423v-30v-29.5V423c0,0,0-16.216,0-39.95
	c0-51.332,0-137.84,0-171.55C461.5,94.699,366.8,0,250,0C133.191,0,38.5,94.699,38.5,211.5z"/>
</g></g><g transform="translate(385,770) scale(0.07,0.07)"><g transform="" style="fill: rgb(255, 255, 255);">
<polygon points="38.5,250 38.5,500 461.5,500 461.5,250 461.5,0 38.5,0 "/>
</g></g><g transform="translate(490,770) scale(0.07,0.07)"><g transform="" style="fill: rgb(255, 255, 255);">
<polygon points="38.5,250 38.5,500 461.5,500 461.5,250 461.5,0 38.5,0 "/>
</g></g><g transform="translate(665,770) scale(0.07,0.07)"><g transform="" style="fill: rgb(255, 255, 255);">
<path d="M38.5,211.5c0,42.907,0,123.188,0,171.55c0,23.857,0,39.95,0,39.95v17.5V470v30h423v-30v-29.5V423c0,0,0-16.216,0-39.95
	c0-51.332,0-137.84,0-171.55C461.5,94.699,366.8,0,250,0C133.191,0,38.5,94.699,38.5,211.5z"/>
</g></g><g transform="translate(700,770) scale(0.07,0.07)"><g transform="" style="fill: rgb(255, 255, 255);">
<polygon points="38.5,250 38.5,500 461.5,500 461.5,250 461.5,0 38.5,0 "/>
</g></g><g transform="translate(770,770) scale(0.07,0.07)"><g transform="" style="fill: rgb(255, 255, 255);">
<path d="M250,38.5c116.813,0,211.5,94.693,211.5,211.5c0,116.813-94.687,211.5-211.5,211.5c-116.807,0-211.5-94.687-211.5-211.5
	C38.5,133.193,133.193,38.5,250,38.5z"/>
</g></g><g transform="translate(840,770) scale(0.07,0.07)"><g transform="" style="fill: rgb(255, 255, 255);">
<polygon points="38.5,250 38.5,500 461.5,500 461.5,250 461.5,0 38.5,0 "/>
</g></g><g transform="translate(875,770) scale(0.07,0.07)"><g transform="" style="fill: rgb(255, 255, 255);">
<path d="M461.5,288.5c0-42.907,0-123.188,0-171.55c0-23.857,0-39.95,0-39.95V59.5V30V0h-423v30v29.5V77c0,0,0,16.216,0,39.95
	c0,51.332,0,137.84,0,171.55C38.5,405.301,133.2,500,250,500C366.809,500,461.5,405.301,461.5,288.5z"/>
</g></g><g transform="translate(280,805) scale(0.07,0.07)"><g transform="" style="fill: rgb(255, 255, 255);">
<polygon points="38.5,250 38.5,500 461.5,500 461.5,250 461.5,0 38.5,0 "/>
</g></g><g transform="translate(350,805) scale(0.07,0.07)"><g transform="" style="fill: rgb(255, 255, 255);">
<polygon points="38.5,250 38.5,500 461.5,500 461.5,250 461.5,0 38.5,0 "/>
</g></g><g transform="translate(385,805) scale(0.07,0.07)"><g transform="" style="fill: rgb(255, 255, 255);">
<path d="M461.5,288.5c0-42.907,0-123.188,0-171.55c0-23.857,0-39.95,0-39.95V59.5V30V0h-423v30v29.5V77c0,0,0,16.216,0,39.95
	c0,51.332,0,137.84,0,171.55C38.5,405.301,133.2,500,250,500C366.809,500,461.5,405.301,461.5,288.5z"/>
</g></g><g transform="translate(420,805) scale(0.07,0.07)"><g transform="" style="fill: rgb(255, 255, 255);">
<path d="M250,38.5c116.813,0,211.5,94.693,211.5,211.5c0,116.813-94.687,211.5-211.5,211.5c-116.807,0-211.5-94.687-211.5-211.5
	C38.5,133.193,133.193,38.5,250,38.5z"/>
</g></g><g transform="translate(490,805) scale(0.07,0.07)"><g transform="" style="fill: rgb(255, 255, 255);">
<polygon points="38.5,250 38.5,500 461.5,500 461.5,250 461.5,0 38.5,0 "/>
</g></g><g transform="translate(525,805) scale(0.07,0.07)"><g transform="" style="fill: rgb(255, 255, 255);">
<path d="M250,38.5c116.813,0,211.5,94.693,211.5,211.5c0,116.813-94.687,211.5-211.5,211.5c-116.807,0-211.5-94.687-211.5-211.5
	C38.5,133.193,133.193,38.5,250,38.5z"/>
</g></g><g transform="translate(595,805) scale(0.07,0.07)"><g transform="" style="fill: rgb(255, 255, 255);">
<path d="M38.5,211.5c0,42.907,0,123.188,0,171.55c0,23.857,0,39.95,0,39.95v17.5V470v30h423v-30v-29.5V423c0,0,0-16.216,0-39.95
	c0-51.332,0-137.84,0-171.55C461.5,94.699,366.8,0,250,0C133.191,0,38.5,94.699,38.5,211.5z"/>
</g></g><g transform="translate(630,805) scale(0.07,0.07)"><g transform="" style="fill: rgb(255, 255, 255);">
<path d="M38.5,211.5c0,42.907,0,123.188,0,171.55c0,23.857,0,39.95,0,39.95v17.5V470v30h423v-30v-29.5V423c0,0,0-16.216,0-39.95
	c0-51.332,0-137.84,0-171.55C461.5,94.699,366.8,0,250,0C133.191,0,38.5,94.699,38.5,211.5z"/>
</g></g><g transform="translate(665,805) scale(0.07,0.07)"><g transform="" style="fill: rgb(255, 255, 255);">
<polygon points="38.5,250 38.5,500 461.5,500 461.5,250 461.5,0 38.5,0 "/>
</g></g><g transform="translate(700,805) scale(0.07,0.07)"><g transform="" style="fill: rgb(255, 255, 255);">
<polygon points="38.5,250 38.5,500 461.5,500 461.5,250 461.5,0 38.5,0 "/>
</g></g><g transform="translate(840,805) scale(0.07,0.07)"><g transform="" style="fill: rgb(255, 255, 255);">
<polygon points="38.5,250 38.5,500 461.5,500 461.5,250 461.5,0 38.5,0 "/>
</g></g><g transform="translate(980,805) scale(0.07,0.07)"><g transform="" style="fill: rgb(255, 255, 255);">
<path d="M250,38.5c116.813,0,211.5,94.693,211.5,211.5c0,116.813-94.687,211.5-211.5,211.5c-116.807,0-211.5-94.687-211.5-211.5
	C38.5,133.193,133.193,38.5,250,38.5z"/>
</g></g><g transform="translate(280,840) scale(0.07,0.07)"><g transform="" style="fill: rgb(255, 255, 255);">
<polygon points="38.5,250 38.5,500 461.5,500 461.5,250 461.5,0 38.5,0 "/>
</g></g><g transform="translate(315,840) scale(0.07,0.07)"><g transform="" style="fill: rgb(255, 255, 255);">
<path d="M250,38.5c116.813,0,211.5,94.693,211.5,211.5c0,116.813-94.687,211.5-211.5,211.5c-116.807,0-211.5-94.687-211.5-211.5
	C38.5,133.193,133.193,38.5,250,38.5z"/>
</g></g><g transform="translate(350,840) scale(0.07,0.07)"><g transform="" style="fill: rgb(255, 255, 255);">
<polygon points="38.5,250 38.5,500 461.5,500 461.5,250 461.5,0 38.5,0 "/>
</g></g><g transform="translate(455,840) scale(0.07,0.07)"><g transform="" style="fill: rgb(255, 255, 255);">
<path d="M250,38.5c116.813,0,211.5,94.693,211.5,211.5c0,116.813-94.687,211.5-211.5,211.5c-116.807,0-211.5-94.687-211.5-211.5
	C38.5,133.193,133.193,38.5,250,38.5z"/>
</g></g><g transform="translate(490,840) scale(0.07,0.07)"><g transform="" style="fill: rgb(255, 255, 255);">
<path d="M461.5,288.5c0-42.907,0-123.188,0-171.55c0-23.857,0-39.95,0-39.95V59.5V30V0h-423v30v29.5V77c0,0,0,16.216,0,39.95
	c0,51.332,0,137.84,0,171.55C38.5,405.301,133.2,500,250,500C366.809,500,461.5,405.301,461.5,288.5z"/>
</g></g><g transform="translate(595,840) scale(0.07,0.07)"><g transform="" style="fill: rgb(255, 255, 255);">
<polygon points="38.5,250 38.5,500 461.5,500 461.5,250 461.5,0 38.5,0 "/>
</g></g><g transform="translate(630,840) scale(0.07,0.07)"><g transform="" style="fill: rgb(255, 255, 255);">
<polygon points="38.5,250 38.5,500 461.5,500 461.5,250 461.5,0 38.5,0 "/>
</g></g><g transform="translate(665,840) scale(0.07,0.07)"><g transform="" style="fill: rgb(255, 255, 255);">
<path d="M461.5,288.5c0-42.907,0-123.188,0-171.55c0-23.857,0-39.95,0-39.95V59.5V30V0h-423v30v29.5V77c0,0,0,16.216,0,39.95
	c0,51.332,0,137.84,0,171.55C38.5,405.301,133.2,500,250,500C366.809,500,461.5,405.301,461.5,288.5z"/>
</g></g><g transform="translate(700,840) scale(0.07,0.07)"><g transform="" style="fill: rgb(255, 255, 255);">
<path d="M461.5,288.5c0-42.907,0-123.188,0-171.55c0-23.857,0-39.95,0-39.95V59.5V30V0h-423v30v29.5V77c0,0,0,16.216,0,39.95
	c0,51.332,0,137.84,0,171.55C38.5,405.301,133.2,500,250,500C366.809,500,461.5,405.301,461.5,288.5z"/>
</g></g><g transform="translate(735,840) scale(0.07,0.07)"><g transform="" style="fill: rgb(255, 255, 255);">
<path d="M38.5,211.5c0,42.907,0,123.188,0,171.55c0,23.857,0,39.95,0,39.95v17.5V470v30h423v-30v-29.5V423c0,0,0-16.216,0-39.95
	c0-51.332,0-137.84,0-171.55C461.5,94.699,366.8,0,250,0C133.191,0,38.5,94.699,38.5,211.5z"/>
</g></g><g transform="translate(770,840) scale(0.07,0.07)"><g transform="" style="fill: rgb(255, 255, 255);">
<path d="M250,38.5c116.813,0,211.5,94.693,211.5,211.5c0,116.813-94.687,211.5-211.5,211.5c-116.807,0-211.5-94.687-211.5-211.5
	C38.5,133.193,133.193,38.5,250,38.5z"/>
</g></g><g transform="translate(805,840) scale(0.07,0.07)"><g transform="" style="fill: rgb(255, 255, 255);">
<path d="M250,38.5c116.813,0,211.5,94.693,211.5,211.5c0,116.813-94.687,211.5-211.5,211.5c-116.807,0-211.5-94.687-211.5-211.5
	C38.5,133.193,133.193,38.5,250,38.5z"/>
</g></g><g transform="translate(840,840) scale(0.07,0.07)"><g transform="" style="fill: rgb(255, 255, 255);">
<path d="M461.5,288.5c0-42.907,0-123.188,0-171.55c0-23.857,0-39.95,0-39.95V59.5V30V0h-423v30v29.5V77c0,0,0,16.216,0,39.95
	c0,51.332,0,137.84,0,171.55C38.5,405.301,133.2,500,250,500C366.809,500,461.5,405.301,461.5,288.5z"/>
</g></g><g transform="translate(875,840) scale(0.07,0.07)"><g transform="" style="fill: rgb(255, 255, 255);">
<path d="M250,38.5c116.813,0,211.5,94.693,211.5,211.5c0,116.813-94.687,211.5-211.5,211.5c-116.807,0-211.5-94.687-211.5-211.5
	C38.5,133.193,133.193,38.5,250,38.5z"/>
</g></g><g transform="translate(280,875) scale(0.07,0.07)"><g transform="" style="fill: rgb(255, 255, 255);">
<path d="M461.5,288.5c0-42.907,0-123.188,0-171.55c0-23.857,0-39.95,0-39.95V59.5V30V0h-423v30v29.5V77c0,0,0,16.216,0,39.95
	c0,51.332,0,137.84,0,171.55C38.5,405.301,133.2,500,250,500C366.809,500,461.5,405.301,461.5,288.5z"/>
</g></g><g transform="translate(350,875) scale(0.07,0.07)"><g transform="" style="fill: rgb(255, 255, 255);">
<path d="M461.5,288.5c0-42.907,0-123.188,0-171.55c0-23.857,0-39.95,0-39.95V59.5V30V0h-423v30v29.5V77c0,0,0,16.216,0,39.95
	c0,51.332,0,137.84,0,171.55C38.5,405.301,133.2,500,250,500C366.809,500,461.5,405.301,461.5,288.5z"/>
</g></g><g transform="translate(420,875) scale(0.07,0.07)"><g transform="" style="fill: rgb(255, 255, 255);">
<path d="M250,38.5c116.813,0,211.5,94.693,211.5,211.5c0,116.813-94.687,211.5-211.5,211.5c-116.807,0-211.5-94.687-211.5-211.5
	C38.5,133.193,133.193,38.5,250,38.5z"/>
</g></g><g transform="translate(595,875) scale(0.07,0.07)"><g transform="" style="fill: rgb(255, 255, 255);">
<polygon points="38.5,250 38.5,500 461.5,500 461.5,250 461.5,0 38.5,0 "/>
</g></g><g transform="translate(630,875) scale(0.07,0.07)"><g transform="" style="fill: rgb(255, 255, 255);">
<path d="M461.5,288.5c0-42.907,0-123.188,0-171.55c0-23.857,0-39.95,0-39.95V59.5V30V0h-423v30v29.5V77c0,0,0,16.216,0,39.95
	c0,51.332,0,137.84,0,171.55C38.5,405.301,133.2,500,250,500C366.809,500,461.5,405.301,461.5,288.5z"/>
</g></g><g transform="translate(735,875) scale(0.07,0.07)"><g transform="" style="fill: rgb(255, 255, 255);">
<polygon points="38.5,250 38.5,500 461.5,500 461.5,250 461.5,0 38.5,0 "/>
</g></g><g transform="translate(945,875) scale(0.07,0.07)"><g transform="" style="fill: rgb(255, 255, 255);">
<path d="M38.5,211.5c0,42.907,0,123.188,0,171.55c0,23.857,0,39.95,0,39.95v17.5V470v30h423v-30v-29.5V423c0,0,0-16.216,0-39.95
	c0-51.332,0-137.84,0-171.55C461.5,94.699,366.8,0,250,0C133.191,0,38.5,94.699,38.5,211.5z"/>
</g></g><g transform="translate(315,910) scale(0.07,0.07)"><g transform="" style="fill: rgb(255, 255, 255);">
<path d="M250,38.5c116.813,0,211.5,94.693,211.5,211.5c0,116.813-94.687,211.5-211.5,211.5c-116.807,0-211.5-94.687-211.5-211.5
	C38.5,133.193,133.193,38.5,250,38.5z"/>
</g></g><g transform="translate(385,910) scale(0.07,0.07)"><g transform="" style="fill: rgb(255, 255, 255);">
<path d="M38.5,211.5c0,42.907,0,123.188,0,171.55c0,23.857,0,39.95,0,39.95v17.5V470v30h423v-30v-29.5V423c0,0,0-16.216,0-39.95
	c0-51.332,0-137.84,0-171.55C461.5,94.699,366.8,0,250,0C133.191,0,38.5,94.699,38.5,211.5z"/>
</g></g><g transform="translate(525,910) scale(0.07,0.07)"><g transform="" style="fill: rgb(255, 255, 255);">
<path d="M250,38.5c116.813,0,211.5,94.693,211.5,211.5c0,116.813-94.687,211.5-211.5,211.5c-116.807,0-211.5-94.687-211.5-211.5
	C38.5,133.193,133.193,38.5,250,38.5z"/>
</g></g><g transform="translate(595,910) scale(0.07,0.07)"><g transform="" style="fill: rgb(255, 255, 255);">
<polygon points="38.5,250 38.5,500 461.5,500 461.5,250 461.5,0 38.5,0 "/>
</g></g><g transform="translate(700,910) scale(0.07,0.07)"><g transform="" style="fill: rgb(255, 255, 255);">
<path d="M250,38.5c116.813,0,211.5,94.693,211.5,211.5c0,116.813-94.687,211.5-211.5,211.5c-116.807,0-211.5-94.687-211.5-211.5
	C38.5,133.193,133.193,38.5,250,38.5z"/>
</g></g><g transform="translate(735,910) scale(0.07,0.07)"><g transform="" style="fill: rgb(255, 255, 255);">
<path d="M461.5,288.5c0-42.907,0-123.188,0-171.55c0-23.857,0-39.95,0-39.95V59.5V30V0h-423v30v29.5V77c0,0,0,16.216,0,39.95
	c0,51.332,0,137.84,0,171.55C38.5,405.301,133.2,500,250,500C366.809,500,461.5,405.301,461.5,288.5z"/>
</g></g><g transform="translate(805,910) scale(0.07,0.07)"><g transform="" style="fill: rgb(255, 255, 255);">
<path d="M38.5,211.5c0,42.907,0,123.188,0,171.55c0,23.857,0,39.95,0,39.95v17.5V470v30h423v-30v-29.5V423c0,0,0-16.216,0-39.95
	c0-51.332,0-137.84,0-171.55C461.5,94.699,366.8,0,250,0C133.191,0,38.5,94.699,38.5,211.5z"/>
</g></g><g transform="translate(840,910) scale(0.07,0.07)"><g transform="" style="fill: rgb(255, 255, 255);">
<path d="M250,38.5c116.813,0,211.5,94.693,211.5,211.5c0,116.813-94.687,211.5-211.5,211.5c-116.807,0-211.5-94.687-211.5-211.5
	C38.5,133.193,133.193,38.5,250,38.5z"/>
</g></g><g transform="translate(910,910) scale(0.07,0.07)"><g transform="" style="fill: rgb(255, 255, 255);">
<path d="M38.5,211.5c0,42.907,0,123.188,0,171.55c0,23.857,0,39.95,0,39.95v17.5V470v30h423v-30v-29.5V423c0,0,0-16.216,0-39.95
	c0-51.332,0-137.84,0-171.55C461.5,94.699,366.8,0,250,0C133.191,0,38.5,94.699,38.5,211.5z"/>
</g></g><g transform="translate(945,910) scale(0.07,0.07)"><g transform="" style="fill: rgb(255, 255, 255);">
<path d="M461.5,288.5c0-42.907,0-123.188,0-171.55c0-23.857,0-39.95,0-39.95V59.5V30V0h-423v30v29.5V77c0,0,0,16.216,0,39.95
	c0,51.332,0,137.84,0,171.55C38.5,405.301,133.2,500,250,500C366.809,500,461.5,405.301,461.5,288.5z"/>
</g></g><g transform="translate(980,910) scale(0.07,0.07)"><g transform="" style="fill: rgb(255, 255, 255);">
<path d="M38.5,211.5c0,42.907,0,123.188,0,171.55c0,23.857,0,39.95,0,39.95v17.5V470v30h423v-30v-29.5V423c0,0,0-16.216,0-39.95
	c0-51.332,0-137.84,0-171.55C461.5,94.699,366.8,0,250,0C133.191,0,38.5,94.699,38.5,211.5z"/>
</g></g><g transform="translate(350,945) scale(0.07,0.07)"><g transform="" style="fill: rgb(255, 255, 255);">
<path d="M38.5,211.5c0,42.907,0,123.188,0,171.55c0,23.857,0,39.95,0,39.95v17.5V470v30h423v-30v-29.5V423c0,0,0-16.216,0-39.95
	c0-51.332,0-137.84,0-171.55C461.5,94.699,366.8,0,250,0C133.191,0,38.5,94.699,38.5,211.5z"/>
</g></g><g transform="translate(385,945) scale(0.07,0.07)"><g transform="" style="fill: rgb(255, 255, 255);">
<path d="M461.5,288.5c0-42.907,0-123.188,0-171.55c0-23.857,0-39.95,0-39.95V59.5V30V0h-423v30v29.5V77c0,0,0,16.216,0,39.95
	c0,51.332,0,137.84,0,171.55C38.5,405.301,133.2,500,250,500C366.809,500,461.5,405.301,461.5,288.5z"/>
</g></g><g transform="translate(455,945) scale(0.07,0.07)"><g transform="" style="fill: rgb(255, 255, 255);">
<path d="M38.5,211.5c0,42.907,0,123.188,0,171.55c0,23.857,0,39.95,0,39.95v17.5V470v30h423v-30v-29.5V423c0,0,0-16.216,0-39.95
	c0-51.332,0-137.84,0-171.55C461.5,94.699,366.8,0,250,0C133.191,0,38.5,94.699,38.5,211.5z"/>
</g></g><g transform="translate(490,945) scale(0.07,0.07)"><g transform="" style="fill: rgb(255, 255, 255);">
<path d="M250,38.5c116.813,0,211.5,94.693,211.5,211.5c0,116.813-94.687,211.5-211.5,211.5c-116.807,0-211.5-94.687-211.5-211.5
	C38.5,133.193,133.193,38.5,250,38.5z"/>
</g></g><g transform="translate(560,945) scale(0.07,0.07)"><g transform="" style="fill: rgb(255, 255, 255);">
<path d="M250,38.5c116.813,0,211.5,94.693,211.5,211.5c0,116.813-94.687,211.5-211.5,211.5c-116.807,0-211.5-94.687-211.5-211.5
	C38.5,133.193,133.193,38.5,250,38.5z"/>
</g></g><g transform="translate(595,945) scale(0.07,0.07)"><g transform="" style="fill: rgb(255, 255, 255);">
<polygon points="38.5,250 38.5,500 461.5,500 461.5,250 461.5,0 38.5,0 "/>
</g></g><g transform="translate(630,945) scale(0.07,0.07)"><g transform="" style="fill: rgb(255, 255, 255);">
<path d="M250,38.5c116.813,0,211.5,94.693,211.5,211.5c0,116.813-94.687,211.5-211.5,211.5c-116.807,0-211.5-94.687-211.5-211.5
	C38.5,133.193,133.193,38.5,250,38.5z"/>
</g></g><g transform="translate(770,945) scale(0.07,0.07)"><g transform="" style="fill: rgb(255, 255, 255);">
<path d="M38.5,211.5c0,42.907,0,123.188,0,171.55c0,23.857,0,39.95,0,39.95v17.5V470v30h423v-30v-29.5V423c0,0,0-16.216,0-39.95
	c0-51.332,0-137.84,0-171.55C461.5,94.699,366.8,0,250,0C133.191,0,38.5,94.699,38.5,211.5z"/>
</g></g><g transform="translate(805,945) scale(0.07,0.07)"><g transform="" style="fill: rgb(255, 255, 255);">
<path d="M461.5,288.5c0-42.907,0-123.188,0-171.55c0-23.857,0-39.95,0-39.95V59.5V30V0h-423v30v29.5V77c0,0,0,16.216,0,39.95
	c0,51.332,0,137.84,0,171.55C38.5,405.301,133.2,500,250,500C366.809,500,461.5,405.301,461.5,288.5z"/>
</g></g><g transform="translate(875,945) scale(0.07,0.07)"><g transform="" style="fill: rgb(255, 255, 255);">
<path d="M250,38.5c116.813,0,211.5,94.693,211.5,211.5c0,116.813-94.687,211.5-211.5,211.5c-116.807,0-211.5-94.687-211.5-211.5
	C38.5,133.193,133.193,38.5,250,38.5z"/>
</g></g><g transform="translate(910,945) scale(0.07,0.07)"><g transform="" style="fill: rgb(255, 255, 255);">
<path d="M461.5,288.5c0-42.907,0-123.188,0-171.55c0-23.857,0-39.95,0-39.95V59.5V30V0h-423v30v29.5V77c0,0,0,16.216,0,39.95
	c0,51.332,0,137.84,0,171.55C38.5,405.301,133.2,500,250,500C366.809,500,461.5,405.301,461.5,288.5z"/>
</g></g><g transform="translate(980,945) scale(0.07,0.07)"><g transform="" style="fill: rgb(255, 255, 255);">
<path d="M461.5,288.5c0-42.907,0-123.188,0-171.55c0-23.857,0-39.95,0-39.95V59.5V30V0h-423v30v29.5V77c0,0,0,16.216,0,39.95
	c0,51.332,0,137.84,0,171.55C38.5,405.301,133.2,500,250,500C366.809,500,461.5,405.301,461.5,288.5z"/>
</g></g><g transform="translate(280,980) scale(0.07,0.07)"><g transform="" style="fill: rgb(255, 255, 255);">
<path d="M250,38.5c116.813,0,211.5,94.693,211.5,211.5c0,116.813-94.687,211.5-211.5,211.5c-116.807,0-211.5-94.687-211.5-211.5
	C38.5,133.193,133.193,38.5,250,38.5z"/>
</g></g><g transform="translate(315,980) scale(0.07,0.07)"><g transform="" style="fill: rgb(255, 255, 255);">
<path d="M250,38.5c116.813,0,211.5,94.693,211.5,211.5c0,116.813-94.687,211.5-211.5,211.5c-116.807,0-211.5-94.687-211.5-211.5
	C38.5,133.193,133.193,38.5,250,38.5z"/>
</g></g><g transform="translate(350,980) scale(0.07,0.07)"><g transform="" style="fill: rgb(255, 255, 255);">
<path d="M461.5,288.5c0-42.907,0-123.188,0-171.55c0-23.857,0-39.95,0-39.95V59.5V30V0h-423v30v29.5V77c0,0,0,16.216,0,39.95
	c0,51.332,0,137.84,0,171.55C38.5,405.301,133.2,500,250,500C366.809,500,461.5,405.301,461.5,288.5z"/>
</g></g><g transform="translate(455,980) scale(0.07,0.07)"><g transform="" style="fill: rgb(255, 255, 255);">
<path d="M461.5,288.5c0-42.907,0-123.188,0-171.55c0-23.857,0-39.95,0-39.95V59.5V30V0h-423v30v29.5V77c0,0,0,16.216,0,39.95
	c0,51.332,0,137.84,0,171.55C38.5,405.301,133.2,500,250,500C366.809,500,461.5,405.301,461.5,288.5z"/>
</g></g><g transform="translate(525,980) scale(0.07,0.07)"><g transform="" style="fill: rgb(255, 255, 255);">
<path d="M250,38.5c116.813,0,211.5,94.693,211.5,211.5c0,116.813-94.687,211.5-211.5,211.5c-116.807,0-211.5-94.687-211.5-211.5
	C38.5,133.193,133.193,38.5,250,38.5z"/>
</g></g><g transform="translate(595,980) scale(0.07,0.07)"><g transform="" style="fill: rgb(255, 255, 255);">
<path d="M461.5,288.5c0-42.907,0-123.188,0-171.55c0-23.857,0-39.95,0-39.95V59.5V30V0h-423v30v29.5V77c0,0,0,16.216,0,39.95
	c0,51.332,0,137.84,0,171.55C38.5,405.301,133.2,500,250,500C366.809,500,461.5,405.301,461.5,288.5z"/>
</g></g><g transform="translate(665,980) scale(0.07,0.07)"><g transform="" style="fill: rgb(255, 255, 255);">
<path d="M250,38.5c116.813,0,211.5,94.693,211.5,211.5c0,116.813-94.687,211.5-211.5,211.5c-116.807,0-211.5-94.687-211.5-211.5
	C38.5,133.193,133.193,38.5,250,38.5z"/>
</g></g><g transform="translate(700,980) scale(0.07,0.07)"><g transform="" style="fill: rgb(255, 255, 255);">
<path d="M250,38.5c116.813,0,211.5,94.693,211.5,211.5c0,116.813-94.687,211.5-211.5,211.5c-116.807,0-211.5-94.687-211.5-211.5
	C38.5,133.193,133.193,38.5,250,38.5z"/>
</g></g><g transform="translate(770,980) scale(0.07,0.07)"><g transform="" style="fill: rgb(255, 255, 255);">
<path d="M461.5,288.5c0-42.907,0-123.188,0-171.55c0-23.857,0-39.95,0-39.95V59.5V30V0h-423v30v29.5V77c0,0,0,16.216,0,39.95
	c0,51.332,0,137.84,0,171.55C38.5,405.301,133.2,500,250,500C366.809,500,461.5,405.301,461.5,288.5z"/>
</g></g><g transform="translate(840,980) scale(0.07,0.07)"><g transform="" style="fill: rgb(255, 255, 255);">
<path d="M250,38.5c116.813,0,211.5,94.693,211.5,211.5c0,116.813-94.687,211.5-211.5,211.5c-116.807,0-211.5-94.687-211.5-211.5
	C38.5,133.193,133.193,38.5,250,38.5z"/>
</g></g><g transform="translate(0,0) scale(2.45, 2.45)"><g transform="" style="fill: rgb(255, 255, 255);">
<g>
	<path style="fill:none;" d="M65.859,15.008H34.141c-4.082,0-7.869,1.258-10.979,3.398c-2.419,1.665-4.428,3.864-5.848,6.421
		C15.838,27.484,15,30.526,15,33.758v32.471c0,10.344,8.586,18.76,19.145,18.76L50,84.992l15.855-0.004
		C76.414,84.988,85,76.572,85,66.229V33.758C85,23.419,76.414,15.008,65.859,15.008z"/>
	<path d="M65.859,0.008H34.141h0C18.683,0.008,5.587,10.221,1.4,24.18c-0.433,1.444-0.771,2.928-1.006,4.445
		C0.135,30.299,0,32.013,0,33.758v32.471c0,18.619,15.32,33.76,34.141,33.76L50,99.992l15.859-0.004
		c18.82,0,34.141-15.141,34.141-33.76V33.758C100,15.148,84.68,0.008,65.859,0.008z M85,66.229c0,10.344-8.586,18.76-19.145,18.76
		L50,84.992l-15.855-0.004C23.586,84.988,15,76.572,15,66.229V33.758c0-3.231,0.838-6.273,2.313-8.931
		c1.42-2.557,3.429-4.756,5.848-6.421c3.11-2.141,6.897-3.398,10.979-3.398h31.719C76.414,15.008,85,23.419,85,33.758V66.229z"/>
</g>
</g></g><g transform="translate(770,0) scale(2.45, 2.45)"><g transform="" style="fill: rgb(255, 255, 255);">
<g>
	<path style="fill:none;" d="M65.859,15.008H34.141c-4.082,0-7.869,1.258-10.979,3.398c-2.419,1.665-4.428,3.864-5.848,6.421
		C15.838,27.484,15,30.526,15,33.758v32.471c0,10.344,8.586,18.76,19.145,18.76L50,84.992l15.855-0.004
		C76.414,84.988,85,76.572,85,66.229V33.758C85,23.419,76.414,15.008,65.859,15.008z"/>
	<path d="M65.859,0.008H34.141h0C18.683,0.008,5.587,10.221,1.4,24.18c-0.433,1.444-0.771,2.928-1.006,4.445
		C0.135,30.299,0,32.013,0,33.758v32.471c0,18.619,15.32,33.76,34.141,33.76L50,99.992l15.859-0.004
		c18.82,0,34.141-15.141,34.141-33.76V33.758C100,15.148,84.68,0.008,65.859,0.008z M85,66.229c0,10.344-8.586,18.76-19.145,18.76
		L50,84.992l-15.855-0.004C23.586,84.988,15,76.572,15,66.229V33.758c0-3.231,0.838-6.273,2.313-8.931
		c1.42-2.557,3.429-4.756,5.848-6.421c3.11-2.141,6.897-3.398,10.979-3.398h31.719C76.414,15.008,85,23.419,85,33.758V66.229z"/>
</g>
</g></g><g transform="translate(0,770) scale(2.45, 2.45)"><g transform="" style="fill: rgb(255, 255, 255);">
<g>
	<path style="fill:none;" d="M65.859,15.008H34.141c-4.082,0-7.869,1.258-10.979,3.398c-2.419,1.665-4.428,3.864-5.848,6.421
		C15.838,27.484,15,30.526,15,33.758v32.471c0,10.344,8.586,18.76,19.145,18.76L50,84.992l15.855-0.004
		C76.414,84.988,85,76.572,85,66.229V33.758C85,23.419,76.414,15.008,65.859,15.008z"/>
	<path d="M65.859,0.008H34.141h0C18.683,0.008,5.587,10.221,1.4,24.18c-0.433,1.444-0.771,2.928-1.006,4.445
		C0.135,30.299,0,32.013,0,33.758v32.471c0,18.619,15.32,33.76,34.141,33.76L50,99.992l15.859-0.004
		c18.82,0,34.141-15.141,34.141-33.76V33.758C100,15.148,84.68,0.008,65.859,0.008z M85,66.229c0,10.344-8.586,18.76-19.145,18.76
		L50,84.992l-15.855-0.004C23.586,84.988,15,76.572,15,66.229V33.758c0-3.231,0.838-6.273,2.313-8.931
		c1.42-2.557,3.429-4.756,5.848-6.421c3.11-2.141,6.897-3.398,10.979-3.398h31.719C76.414,15.008,85,23.419,85,33.758V66.229z"/>
</g>
</g></g><g transform="translate(70,70) scale(1.05, 1.05)"><g transform="" style="fill: rgb(255, 255, 255);">
<g>
	<g id="XMLID_1_">
		<g>
			<path d="M27.351,100c-15.09,0-27.365-12.032-27.365-26.808V26.794c0-4.616,1.2-8.96,3.301-12.761
				c2.029-3.658,4.901-6.802,8.36-9.174C16.09,1.801,21.506,0,27.336,0h45.327c15.076,0,27.351,12.018,27.351,26.793v46.398
				c0,14.775-12.274,26.808-27.351,26.808H50H27.351z"/>
		</g>
		<g>
		</g>
	</g>
</g>
</g></g><g transform="translate(840,70) scale(1.05, 1.05)"><g transform="" style="fill: rgb(255, 255, 255);">
<g>
	<g id="XMLID_1_">
		<g>
			<path d="M27.351,100c-15.09,0-27.365-12.032-27.365-26.808V26.794c0-4.616,1.2-8.96,3.301-12.761
				c2.029-3.658,4.901-6.802,8.36-9.174C16.09,1.801,21.506,0,27.336,0h45.327c15.076,0,27.351,12.018,27.351,26.793v46.398
				c0,14.775-12.274,26.808-27.351,26.808H50H27.351z"/>
		</g>
		<g>
		</g>
	</g>
</g>
</g></g><g transform="translate(70,840) scale(1.05, 1.05)"><g transform="" style="fill: rgb(255, 255, 255);">
<g>
	<g id="XMLID_1_">
		<g>
			<path d="M27.351,100c-15.09,0-27.365-12.032-27.365-26.808V26.794c0-4.616,1.2-8.96,3.301-12.761
				c2.029-3.658,4.901-6.802,8.36-9.174C16.09,1.801,21.506,0,27.336,0h45.327c15.076,0,27.351,12.018,27.351,26.793v46.398
				c0,14.775-12.274,26.808-27.351,26.808H50H27.351z"/>
		</g>
		<g>
		</g>
	</g>
</g>
</g></g></g></svg>
